<?xml version="1.0" encoding="UTF-8" standalone="no"?> <svg width="60" height="60" viewBox="0 0 60 60" fill="none" xmlns="http://www.w3.org/2000/svg">
<g clip-path="url(#clip0)">
<path d="M29.9999 9.76016C27.8297 9.76115 25.7085 10.4055 23.9044 11.6119C22.1003 12.8182 20.6944 14.5323 19.8644 16.5375C19.0343 18.5427 18.8174 20.749 19.241 22.8775C19.6647 25.006 20.7098 26.9611 22.2444 28.4957C23.779 30.0302 25.7341 31.0754 27.8626 31.499C29.991 31.9227 32.1973 31.7057 34.2025 30.8757C36.2078 30.0456 37.9219 28.6397 39.1282 26.8357C40.3345 25.0316 40.9789 22.9104 40.9799 20.7402C40.9774 17.8289 39.8198 15.0375 37.7612 12.9789C35.7026 10.9203 32.9112 9.76268 29.9999 9.76016V9.76016ZM29.9999 29.7102C28.2248 29.7092 26.4899 29.1818 25.0145 28.1948C23.5391 27.2078 22.3896 25.8055 21.7112 24.1651C21.0328 22.5248 20.8561 20.7201 21.2033 18.9793C21.5506 17.2385 22.4063 15.6398 23.6622 14.3853C24.918 13.1309 26.5177 12.277 28.2589 11.9316C30 11.5863 31.8045 11.765 33.4441 12.4453C35.0837 13.1255 36.4848 14.2766 37.4701 15.7531C38.4555 17.2296 38.9809 18.9651 38.9799 20.7402C38.9786 23.1205 38.0317 25.4028 36.3476 27.085C34.6636 28.7672 32.3802 29.7115 29.9999 29.7102V29.7102ZM50.1199 52.2502C49.8283 52.5175 49.4776 52.7123 49.0965 52.8185C48.7154 52.9248 48.3145 52.9395 47.9266 52.8615C47.5387 52.7835 47.1747 52.6151 46.8642 52.3698C46.5538 52.1246 46.3056 51.8095 46.1399 51.4502C44.4199 47.7702 40.0299 41.6002 29.9999 41.6002C27.2887 41.5928 24.6113 42.202 22.1703 43.3818C19.7293 44.5616 17.5885 46.2811 15.9099 48.4102C15.7455 48.6184 15.5051 48.7527 15.2416 48.7836C14.9781 48.8146 14.7131 48.7396 14.5049 48.5752C14.2967 48.4107 14.1624 48.1703 14.1314 47.9068C14.1005 47.6433 14.1755 47.3784 14.3399 47.1702C16.2068 44.8052 18.5863 42.895 21.299 41.5836C24.0118 40.2723 26.9869 39.5941 29.9999 39.6002C41.5499 39.6002 46.3999 47.3002 47.9499 50.6002C47.9817 50.6771 48.0322 50.7448 48.0968 50.7972C48.1614 50.8496 48.2381 50.885 48.3199 50.9002C48.4014 50.9169 48.4857 50.9139 48.5658 50.8912C48.6458 50.8686 48.7193 50.8271 48.7799 50.7702C52.0737 47.8071 54.6137 44.1016 56.1893 39.9608C57.7649 35.82 58.3307 31.3633 57.8399 26.9602C57.4364 23.2783 56.3067 19.7131 54.516 16.4709C52.7254 13.2286 50.3095 10.3737 47.4081 8.0714C44.5068 5.7691 41.1776 4.06512 37.6132 3.05811C34.0489 2.05109 30.3202 1.76104 26.6431 2.20473C22.9659 2.64843 19.4132 3.81706 16.1907 5.64299C12.9682 7.46891 10.1398 9.91587 7.86938 12.8422C5.5989 15.7686 3.9314 19.1162 2.96338 22.6913C1.99537 26.2664 1.74606 29.998 2.2299 33.6702C2.79902 37.9787 4.36303 42.0958 6.79817 45.6954C9.23332 49.2951 12.4728 52.2787 16.2602 54.4101C20.0477 56.5415 24.2792 57.7623 28.62 57.9758C32.9607 58.1893 37.2916 57.3896 41.2699 55.6402C41.3901 55.587 41.5195 55.558 41.6509 55.5548C41.7823 55.5517 41.913 55.5744 42.0355 55.6218C42.1581 55.6691 42.2701 55.7402 42.3653 55.8308C42.4604 55.9215 42.5367 56.03 42.5899 56.1502C42.6431 56.2703 42.6721 56.3998 42.6752 56.5311C42.6784 56.6625 42.6556 56.7932 42.6083 56.9158C42.5609 57.0384 42.4899 57.1504 42.3992 57.2455C42.3086 57.3406 42.2001 57.417 42.0799 57.4702C35.1662 60.5224 27.3565 60.8589 20.2058 58.4127C13.0552 55.9664 7.08813 50.9168 3.49275 44.2692C-0.102618 37.6217 -1.06255 29.864 0.80409 22.5406C2.67073 15.2172 7.227 8.86548 13.5657 4.75004C19.9044 0.634604 27.5606 -0.942614 35.0098 0.332423C42.459 1.60746 49.1547 5.64122 53.7639 11.6305C58.373 17.6199 60.5574 25.1254 59.8821 32.6527C59.2069 40.18 55.7215 47.1768 50.1199 52.2502V52.2502Z" fill="black"/>
</g>
<defs>
<clipPath id="clip0">
<rect width="60" height="60" fill="white"/>
</clipPath>
</defs>
</svg>
