<?xml version="1.0" encoding="UTF-8" standalone="no"?> <svg width="64" height="64" viewBox="0 0 64 64" fill="none" xmlns="http://www.w3.org/2000/svg">
<path d="M56.0001 22.9201C55.851 22.6979 55.6345 22.5294 55.3825 22.4394C55.1305 22.3493 54.8562 22.3426 54.6001 22.4201C54.2101 22.5401 44.9301 25.4201 42.4001 32.4201C40.3201 38.3301 43.7101 45.0001 45.0001 47.1701C41.8716 50.2512 37.6611 51.9849 33.2701 52.0001C31.9331 50.9809 30.673 49.8645 29.5001 48.6601C31.3701 45.6601 38.7801 32.5401 34.6801 21.1301C30.1001 8.39009 13.1601 3.17009 12.4401 3.00009C12.184 2.9226 11.9097 2.92935 11.6577 3.01936C11.4057 3.10936 11.1892 3.27787 11.0401 3.50009C10.6201 4.08009 0.890105 18.9001 5.4601 31.6201C9.5201 42.9101 23.3301 48.2901 26.8801 49.5101C30.1827 53.1593 34.2134 56.0761 38.7122 58.0723C43.2111 60.0685 48.0783 61.1 53.0001 61.1001C53.3316 61.1001 53.6496 60.9684 53.884 60.734C54.1184 60.4996 54.2501 60.1816 54.2501 59.8501C54.2501 59.5186 54.1184 59.2006 53.884 58.9662C53.6496 58.7318 53.3316 58.6001 53.0001 58.6001C47.2276 58.6055 41.5574 57.0766 36.5701 54.1701C40.7349 53.4389 44.5437 51.3587 47.4101 48.2501C49.5201 47.5101 56.8601 44.5501 59.0601 38.4201C61.6001 31.3801 56.2701 23.2701 56.0001 22.9201ZM7.8101 30.7701C4.2401 20.8201 10.7201 8.83009 12.6201 5.65009C16.1101 6.89009 28.7501 12.0001 32.3201 22.0001C35.7701 31.5901 29.8801 43.0701 27.7501 46.7401C22.8765 40.8743 20.2122 33.4863 20.2201 25.8601C20.2201 25.5286 20.0884 25.2106 19.854 24.9762C19.6196 24.7418 19.3016 24.6101 18.9701 24.6101C18.6386 24.6101 18.3206 24.7418 18.0862 24.9762C17.8518 25.2106 17.7201 25.5286 17.7201 25.8601C17.7002 32.886 19.7905 39.7559 23.7201 45.5801C18.5701 43.1501 10.5501 38.3701 7.8101 30.7701ZM56.7201 37.5701C55.6201 40.6301 52.7901 42.8001 50.3301 44.1801C51.8087 41.4103 52.5848 38.3199 52.5901 35.1801C52.5901 34.8486 52.4584 34.5306 52.224 34.2962C51.9896 34.0618 51.6716 33.9301 51.3401 33.9301C51.0086 33.9301 50.6906 34.0618 50.4562 34.2962C50.2218 34.5306 50.0901 34.8486 50.0901 35.1801C50.0829 38.7862 48.9115 42.2935 46.7501 45.1801C45.4601 42.7701 43.2401 37.6201 44.7501 33.3001C46.4401 28.6101 52.1801 26.0101 54.4201 25.1501C55.6401 27.2201 58.4101 32.8801 56.7201 37.5701Z" fill="black"/>
</svg>
