<?xml version="1.0" standalone="no"?>
<!DOCTYPE svg PUBLIC "-//W3C//DTD SVG 20010904//EN"
 "http://www.w3.org/TR/2001/REC-SVG-20010904/DTD/svg10.dtd">
<svg version="1.0" xmlns="http://www.w3.org/2000/svg"
 width="686.000000pt" height="1280.000000pt" viewBox="0 0 686.000000 1280.000000"
 preserveAspectRatio="xMidYMid meet">
<metadata>
Created by potrace 1.15, written by Peter Selinger 2001-2017
</metadata>
<g transform="translate(0.000000,1280.000000) scale(0.100000,-0.100000)"
fill="#000000" stroke="none">
<path d="M4084 12768 c-20 -18 -67 -78 -105 -135 -69 -103 -90 -123 -128 -123
-19 0 -21 -6 -21 -75 l0 -75 -35 14 c-19 8 -37 11 -40 6 -3 -4 0 -31 5 -60 6
-29 10 -70 10 -91 0 -57 -23 -51 -96 27 -76 82 -88 79 -82 -18 5 -58 13 -85
52 -159 46 -89 58 -139 32 -139 -7 0 -47 30 -87 66 -67 60 -154 114 -186 114
-39 0 -15 -55 105 -237 45 -67 88 -135 96 -152 17 -32 21 -71 8 -71 -8 0 -53
29 -149 96 -109 77 -262 144 -298 130 -32 -12 25 -84 187 -239 109 -104 161
-160 169 -184 6 -19 8 -37 5 -41 -9 -8 -93 36 -221 118 -60 38 -144 84 -186
101 -42 16 -87 42 -100 56 -26 28 -113 73 -141 73 -52 0 7 -113 109 -210 91
-87 183 -152 338 -239 61 -34 116 -70 123 -79 22 -28 9 -156 -57 -552 -161
-975 -271 -1891 -326 -2725 -18 -270 -21 -1175 -5 -1496 35 -711 119 -1247
360 -2289 93 -405 170 -762 269 -1250 136 -673 309 -1436 378 -1664 35 -116
47 -124 150 -107 87 15 133 29 133 42 0 18 -42 93 -100 179 -159 236 -222 444
-385 1255 -85 422 -173 821 -336 1513 -319 1359 -353 1578 -390 2472 -13 323
-7 1172 11 1465 51 862 310 2695 436 3097 17 54 33 83 52 99 26 20 81 48 465
232 97 47 177 91 177 96 0 14 10 14 -150 -5 -168 -19 -259 -38 -310 -64 -21
-11 -51 -20 -66 -20 -26 0 -27 0 -9 20 10 11 61 43 114 71 381 204 396 213
371 220 -61 17 -134 9 -198 -21 -114 -54 -277 -92 -257 -60 3 5 63 49 133 96
208 143 282 197 282 207 0 21 -222 -29 -302 -69 -53 -27 -78 -30 -78 -11 0 17
61 61 170 122 95 53 150 100 150 127 0 23 -13 23 -91 -2 -35 -10 -65 -17 -67
-15 -4 3 22 23 122 92 65 46 61 61 -16 65 l-63 3 68 38 c37 21 67 43 67 48 0
4 -9 13 -20 19 -27 15 -25 39 6 71 23 24 26 36 29 124 6 140 -12 163 -81 103z"/>
<path d="M4425 11545 c-95 -59 -147 -80 -170 -71 -8 3 -29 -7 -46 -22 -19 -16
-42 -25 -55 -24 -14 2 -48 -14 -91 -43 -42 -29 -74 -44 -86 -41 -11 3 -35 -8
-60 -27 -23 -18 -74 -45 -112 -61 -148 -63 -190 -103 -182 -180 8 -84 31 -88
135 -27 29 17 63 31 76 31 12 0 88 41 167 91 79 51 182 114 229 142 47 27 116
75 154 106 89 72 173 181 139 181 -5 0 -48 -25 -98 -55z"/>
<path d="M2513 11480 c-30 -12 -21 -34 20 -51 17 -7 60 -35 95 -61 81 -62 113
-78 154 -78 23 0 42 -9 63 -31 17 -17 75 -58 130 -91 78 -46 106 -58 128 -54
24 5 30 2 39 -25 9 -27 14 -30 39 -25 23 4 32 0 50 -26 21 -29 25 -30 72 -25
66 8 97 29 97 66 0 45 -12 92 -24 96 -6 2 -24 6 -39 9 -17 4 -31 16 -37 32 -8
19 -15 24 -29 19 -15 -5 -24 1 -36 25 -14 27 -20 30 -43 25 -23 -5 -32 0 -49
24 -14 18 -41 35 -73 46 -28 9 -63 28 -79 41 -35 29 -103 47 -276 74 -143 22
-169 23 -202 10z"/>
<path d="M1632 11271 c-81 -21 -59 -42 84 -77 179 -44 396 -149 419 -202 8
-19 15 -22 38 -18 90 19 88 19 103 -3 16 -22 47 -27 86 -12 13 4 36 11 51 15
26 6 27 5 18 -13 -23 -41 -1 -58 44 -35 40 20 45 18 45 -22 l0 -37 38 6 c20 3
47 9 59 12 20 7 21 4 16 -36 -5 -38 -4 -42 12 -35 10 4 45 9 78 13 l60 6 -6
-25 c-4 -15 -10 -33 -13 -42 -8 -20 7 -20 70 -1 27 8 51 13 54 11 2 -3 -5 -17
-15 -33 -40 -58 -42 -56 37 -48 l72 7 -16 -24 c-15 -23 -15 -26 -1 -38 15 -12
60 -10 115 6 l25 8 -28 -33 c-22 -26 -25 -36 -16 -47 16 -20 45 -17 114 11 33
14 61 25 63 25 2 0 -13 -19 -32 -42 -46 -53 -48 -88 -7 -88 37 0 84 45 103 97
7 21 13 73 13 115 0 62 -4 81 -18 95 -18 17 -20 17 -49 -17 l-30 -35 7 43 c5
31 3 49 -9 67 -21 32 -37 31 -65 -1 -17 -20 -25 -23 -36 -14 -10 8 -11 19 -3
46 16 61 -10 85 -47 44 -25 -28 -32 -26 -56 23 -26 50 -33 55 -65 49 -20 -4
-27 2 -39 31 -19 46 -28 51 -64 32 -40 -20 -40 -20 -57 20 -18 44 -35 51 -68
30 -25 -17 -26 -16 -36 10 -5 14 -10 37 -10 50 0 61 -22 70 -65 25 -16 -16
-36 -30 -44 -30 -8 0 -32 16 -52 36 l-37 36 -31 -23 c-30 -22 -32 -22 -66 -6
-44 21 -54 21 -77 0 -17 -15 -19 -15 -37 1 -14 13 -42 18 -107 21 -49 2 -134
13 -189 25 -111 23 -283 34 -333 21z"/>
<path d="M4668 11207 c-100 -22 -96 -22 -159 11 -4 1 -19 -9 -35 -23 -18 -17
-34 -23 -47 -19 -10 3 -37 -2 -58 -11 -31 -14 -42 -15 -53 -6 -12 10 -23 5
-60 -29 l-45 -42 -7 27 -7 27 -36 -36 c-37 -36 -64 -45 -76 -26 -12 20 -43 9
-76 -27 -32 -36 -34 -37 -37 -15 -5 30 -18 28 -63 -12 -27 -25 -44 -33 -59
-29 -14 4 -30 -3 -48 -20 -19 -18 -34 -25 -49 -21 -15 4 -28 -2 -45 -21 -34
-39 -54 -48 -78 -33 -19 12 -24 9 -51 -20 -23 -26 -29 -41 -29 -80 0 -26 8
-63 18 -82 15 -31 21 -35 52 -32 19 1 54 4 76 5 24 1 51 10 62 21 17 15 30 17
65 12 42 -6 44 -5 58 26 14 32 16 33 67 30 56 -3 60 1 36 36 -18 26 -10 45 16
37 22 -7 111 15 230 56 50 18 96 28 112 25 21 -4 45 8 116 59 49 35 118 75
153 88 91 35 229 117 229 138 0 14 -64 9 -172 -14z"/>
<path d="M5310 11111 c-106 -23 -171 -42 -239 -72 -52 -22 -54 -22 -87 -4
l-35 18 -38 -37 c-34 -33 -42 -36 -60 -27 -18 10 -27 6 -70 -34 -26 -25 -51
-45 -55 -45 -4 0 -12 14 -17 30 -6 17 -15 30 -20 30 -10 0 -65 -83 -75 -112
-11 -36 -24 -17 -17 27 4 30 2 45 -6 45 -6 0 -36 -23 -68 -51 l-56 -52 -18 22
c-27 33 -51 20 -99 -54 -23 -36 -43 -65 -44 -65 -1 0 -2 23 -1 52 0 31 -5 53
-12 55 -7 3 -34 -16 -60 -40 -59 -55 -88 -70 -118 -63 -26 7 -43 -10 -74 -71
-12 -24 -24 -43 -26 -43 -3 0 -11 16 -19 35 -9 20 -22 35 -31 35 -25 0 -57
-42 -76 -97 -8 -26 -19 -48 -24 -48 -5 0 -13 15 -19 33 -23 67 -63 59 -75 -16
-9 -55 -35 -54 -65 5 l-24 48 -31 -67 c-17 -36 -35 -69 -40 -72 -5 -3 -19 10
-30 30 -25 41 -38 40 -66 -7 -44 -76 -48 -213 -7 -269 25 -33 49 -36 77 -10
16 15 29 19 49 14 14 -3 29 -10 32 -15 9 -14 64 -10 70 5 3 8 -2 28 -11 45
-18 35 -12 37 38 16 41 -17 93 -20 102 -5 3 5 1 19 -5 30 -11 21 -10 21 49 14
53 -6 62 -4 67 11 4 10 2 31 -4 48 -12 33 -15 33 69 1 60 -23 83 -15 74 27
l-7 31 63 -2 c95 -4 99 -3 99 25 0 35 21 40 61 16 41 -25 53 -26 73 -5 14 13
14 19 1 50 -8 19 -13 34 -11 34 2 0 23 -7 46 -15 87 -31 155 -12 130 35 -6 12
-9 24 -6 28 4 3 37 -2 74 -10 37 -9 68 -15 70 -13 3 3 -17 73 -36 124 -3 8 11
3 34 -13 52 -35 110 -36 125 -2 8 17 8 29 -1 46 -13 25 -7 38 12 23 22 -18 84
-34 102 -27 18 7 18 37 1 77 -7 16 -2 17 50 11 63 -8 75 0 75 50 0 21 4 27 16
22 19 -7 100 33 174 87 92 67 160 128 154 138 -6 11 0 12 -104 -10z"/>
<path d="M1152 10825 c-173 -38 -169 -104 4 -90 70 6 88 4 128 -14 26 -11 64
-23 84 -26 61 -11 100 -25 105 -39 4 -10 18 -12 51 -9 l45 5 3 -38 c3 -43 7
-44 83 -29 33 6 38 5 28 -6 -7 -7 -13 -22 -13 -32 0 -16 5 -19 31 -13 17 3 43
15 59 26 37 26 42 25 30 -6 -6 -14 -10 -32 -10 -40 0 -25 55 -16 124 20 36 19
66 33 66 32 0 -2 -6 -21 -14 -42 -7 -22 -11 -45 -9 -51 7 -20 45 -15 88 12 22
13 43 25 46 25 4 0 6 -17 5 -37 -1 -36 1 -38 32 -41 24 -2 46 5 74 23 22 15
42 24 45 22 2 -3 -3 -19 -11 -36 -9 -16 -16 -41 -16 -56 0 -35 24 -33 90 9 30
19 57 30 59 25 2 -6 -5 -31 -14 -55 -9 -25 -15 -48 -11 -51 3 -3 28 4 57 16
74 32 101 13 63 -45 -9 -13 -14 -27 -11 -30 3 -3 37 1 76 10 93 21 95 21 70
-13 -31 -42 -18 -55 46 -47 30 3 62 9 72 13 13 4 11 -2 -9 -24 -60 -64 -24
-84 96 -53 44 11 82 17 85 14 3 -3 -16 -26 -43 -51 l-48 -46 34 7 c18 4 60 10
93 13 l60 6 -33 -37 c-26 -30 -31 -41 -21 -52 14 -17 47 -17 122 0 57 14 70
10 42 -14 -23 -19 -15 -54 13 -58 65 -9 111 42 137 149 16 71 20 215 6 224 -6
3 -26 -9 -46 -27 -30 -26 -38 -29 -46 -17 -5 8 -9 21 -9 29 0 8 -5 32 -11 53
-9 32 -14 37 -37 35 -38 -3 -51 8 -74 58 -10 24 -23 44 -29 44 -5 0 -21 -12
-34 -27 -26 -31 -27 -30 -41 51 -11 63 -34 79 -67 48 -22 -21 -24 -21 -39 -5
-9 10 -24 36 -34 57 -11 22 -24 41 -30 43 -7 2 -24 -17 -38 -42 -15 -25 -30
-45 -34 -45 -4 0 -22 29 -40 65 -17 36 -36 65 -41 65 -5 0 -18 -12 -29 -27
-25 -34 -38 -25 -72 47 -26 55 -38 60 -65 30 -27 -30 -47 -25 -88 25 -21 25
-41 45 -46 45 -4 0 -15 -16 -24 -35 -20 -42 -30 -39 -80 26 -21 27 -43 47 -48
44 -4 -3 -15 -28 -23 -56 -8 -27 -18 -54 -21 -60 -4 -5 -26 11 -50 37 -35 38
-48 45 -68 41 -14 -4 -32 0 -46 9 -24 17 -55 15 -107 -7 -29 -12 -34 -11 -63
14 -29 24 -61 27 -61 6 0 -4 -9 -13 -21 -20 -17 -9 -25 -7 -44 11 -22 21 -27
21 -72 11 -39 -10 -69 -9 -153 3 -123 19 -174 19 -258 1z"/>
<path d="M4917 10424 c-43 -30 -83 -54 -89 -54 -6 0 -8 13 -4 34 7 39 -1 66
-19 66 -8 0 -41 -25 -73 -55 -33 -30 -62 -55 -66 -55 -3 0 -6 18 -6 40 0 36
-2 40 -26 40 -17 0 -40 -16 -73 -50 -50 -52 -60 -53 -75 -3 -19 60 -56 45
-106 -42 -17 -30 -35 -55 -38 -55 -4 0 -15 18 -24 40 -9 22 -23 40 -32 40 -21
0 -64 -57 -90 -118 -12 -28 -24 -54 -28 -57 -3 -3 -8 17 -12 44 -4 28 -11 53
-17 56 -18 12 -78 -64 -119 -148 l-39 -82 -1 88 c0 67 -3 87 -14 87 -16 0 -72
-60 -104 -112 -13 -21 -26 -38 -28 -38 -3 0 -10 14 -15 30 -6 17 -15 30 -19
30 -18 0 -50 -54 -65 -108 -25 -90 -25 -89 -35 -72 -6 8 -10 29 -10 47 0 119
-78 59 -125 -97 -20 -66 -35 -77 -36 -27 -1 43 -21 109 -35 114 -34 11 -78
-104 -90 -230 -8 -90 15 -156 65 -181 61 -32 125 -11 102 33 -6 11 -11 23 -11
27 0 8 53 0 131 -20 80 -20 91 -8 40 46 -22 25 -41 48 -41 51 0 8 103 -22 115
-34 13 -13 49 -11 63 3 19 19 14 39 -15 71 -23 25 -24 29 -8 22 46 -18 122
-35 157 -35 50 0 49 19 -2 63 -22 19 -40 37 -40 41 0 11 60 -3 108 -26 40 -19
45 -19 60 -5 13 13 13 21 4 42 -10 21 -9 27 4 32 14 5 109 -2 168 -14 l29 -6
-46 65 c-26 36 -47 68 -47 71 0 4 32 -9 72 -28 111 -53 180 -44 122 16 -33 34
-27 36 44 9 96 -36 141 -24 112 31 -14 25 -9 24 47 -11 82 -52 133 -34 100 36
-9 19 -14 34 -12 34 3 0 41 -18 85 -40 44 -22 84 -40 90 -40 15 0 12 28 -6 56
-9 13 -14 27 -11 30 3 3 37 -11 76 -30 89 -45 99 -45 103 -2 l3 35 59 -40 c32
-21 67 -39 77 -39 25 0 34 23 19 49 -16 30 3 27 55 -9 65 -45 85 -38 85 31 0
34 14 36 55 9 42 -28 57 -25 80 17 16 29 31 40 70 53 28 9 95 37 150 62 55 26
135 60 177 78 124 51 128 80 13 80 -70 0 -215 -24 -246 -40 -23 -13 -57 -9
-106 11 -26 11 -39 11 -67 1 -30 -11 -39 -11 -60 3 -24 16 -52 13 -124 -12
-14 -5 -15 -3 -4 8 6 7 12 22 12 32 0 16 -5 19 -30 13 -17 -3 -47 -17 -68 -31
-52 -35 -61 -33 -59 18 3 58 -22 60 -96 7 -51 -36 -77 -48 -77 -36 0 2 7 23
15 46 8 23 15 44 15 46 0 10 -21 -2 -93 -52z"/>
<path d="M1377 10293 c-4 -3 -7 -18 -7 -32 0 -14 -3 -36 -7 -49 -5 -22 -8 -21
-54 27 -27 28 -55 51 -62 51 -17 0 -43 -28 -51 -57 -9 -30 -17 -29 -51 7 -35
36 -45 37 -75 5 -21 -22 -29 -24 -70 -19 -36 5 -56 1 -88 -15 -23 -12 -120
-44 -216 -71 -198 -56 -288 -96 -337 -146 -18 -19 -28 -34 -22 -34 6 0 51 10
100 22 69 17 119 22 228 22 155 1 246 -15 277 -46 22 -22 22 -22 90 7 24 9 35
-21 19 -48 -16 -25 -1 -42 28 -32 12 3 47 29 78 56 31 27 60 49 65 49 18 0 6
-32 -27 -69 -19 -21 -35 -41 -35 -45 0 -3 15 -6 34 -6 33 0 74 12 150 45 l40
17 -33 -37 c-17 -20 -30 -42 -28 -48 7 -22 64 -18 122 8 32 14 59 24 61 22 2
-1 -10 -22 -26 -46 -31 -46 -31 -61 1 -61 25 0 67 21 142 72 31 21 57 37 57
34 0 -2 -11 -28 -25 -58 -30 -65 -31 -78 -4 -78 27 0 53 14 115 61 28 22 58
39 67 39 27 0 20 -34 -13 -65 -18 -17 -27 -32 -21 -38 14 -14 67 7 136 53 32
21 60 38 62 36 2 -2 -9 -29 -23 -60 -42 -91 -24 -93 111 -11 71 44 102 27 63
-33 -34 -52 -40 -72 -24 -78 18 -7 64 17 146 74 52 37 62 41 49 22 -9 -14 -31
-51 -49 -82 -37 -68 -34 -70 64 -33 93 35 105 33 67 -10 -34 -39 -40 -72 -14
-82 14 -6 33 -2 118 24 18 5 18 4 -4 -20 -48 -53 4 -75 88 -37 24 11 46 18 49
16 2 -3 -1 -19 -7 -37 -23 -67 -11 -72 103 -39 38 11 71 18 73 16 2 -1 -20
-26 -48 -54 -77 -77 -51 -93 69 -42 69 29 122 39 122 22 0 -5 -16 -23 -36 -41
-67 -62 -25 -88 80 -51 74 27 121 60 142 102 23 45 17 299 -8 325 -16 16 -19
16 -37 -1 -10 -10 -22 -28 -25 -42 -10 -40 -24 -27 -36 34 -18 86 -36 122 -60
122 -21 0 -24 -4 -34 -53 -6 -27 -30 -46 -43 -34 -3 4 -11 32 -17 63 -14 72
-35 88 -71 54 -29 -27 -29 -27 -65 41 -39 74 -69 73 -92 -2 -14 -49 -25 -49
-34 -1 -10 54 -43 138 -59 152 -22 18 -42 -2 -62 -66 -9 -30 -20 -54 -24 -54
-4 0 -16 31 -28 69 -24 78 -50 117 -73 108 -9 -3 -26 -32 -37 -64 -12 -32 -24
-65 -27 -73 -4 -8 -16 22 -29 68 -34 126 -66 144 -94 52 -7 -22 -16 -38 -21
-35 -5 3 -26 37 -45 75 -20 37 -45 76 -54 84 -16 15 -19 15 -33 -1 -9 -10 -23
-42 -33 -71 -9 -28 -21 -50 -25 -47 -5 3 -24 33 -41 66 -53 99 -99 100 -99 2
0 -24 -3 -43 -7 -43 -5 0 -27 23 -51 50 -45 53 -62 60 -82 35 -22 -26 -39 -17
-65 35 -44 87 -81 80 -106 -21 l-15 -64 -13 38 c-21 64 -90 124 -114 100z"/>
<path d="M6385 9833 c-11 -2 -87 -27 -168 -54 -81 -27 -161 -49 -176 -49 -16
0 -40 9 -55 21 l-27 21 -60 -23 c-51 -18 -62 -20 -69 -8 -8 12 -14 12 -42 1
-61 -25 -68 -25 -94 -1 -22 21 -28 22 -72 12 -26 -5 -56 -14 -67 -18 -19 -8
-19 -8 -2 12 47 54 -21 56 -101 4 -49 -32 -66 -33 -39 -3 26 28 22 52 -8 52
-31 0 -67 -18 -119 -59 -21 -17 -42 -31 -47 -31 -4 0 -2 19 6 41 8 23 15 45
15 50 0 30 -89 -13 -160 -76 -74 -66 -101 -60 -58 14 24 42 19 71 -12 71 -27
0 -105 -72 -137 -127 -36 -62 -49 -51 -44 37 3 59 1 71 -10 64 -44 -26 -73
-54 -115 -111 -25 -34 -51 -63 -57 -63 -6 0 -7 26 -3 75 4 41 3 75 -1 75 -4 0
-46 -34 -92 -75 -46 -42 -86 -73 -89 -70 -3 3 -6 22 -6 42 -1 56 -24 53 -95
-13 l-61 -56 0 35 c0 76 -43 58 -120 -51 -48 -66 -55 -73 -58 -52 -8 76 -13
90 -32 90 -20 0 -50 -36 -104 -126 l-30 -49 -10 52 c-16 77 -30 86 -69 43 -18
-20 -48 -58 -67 -85 l-35 -50 -5 54 c-3 30 -10 56 -17 58 -17 6 -56 -38 -93
-104 -45 -80 -81 -88 -59 -14 15 49 4 67 -35 57 -31 -8 -49 -40 -90 -160 -17
-50 -36 -91 -43 -94 -7 -2 -14 12 -18 35 -10 55 -25 102 -36 109 -6 3 -19 -2
-30 -12 -43 -39 -95 -312 -70 -373 21 -50 133 -90 161 -57 11 15 8 22 -24 55
-63 64 -10 64 106 1 89 -50 130 -33 89 35 -26 45 -15 45 84 0 43 -19 75 -29
72 -22 -3 6 -16 35 -28 63 -39 92 -16 102 90 38 56 -34 123 -46 136 -24 4 6
-12 29 -35 52 -61 62 -42 105 22 50 60 -52 162 -79 174 -47 3 8 -10 33 -30 58
-20 24 -36 49 -36 56 0 18 28 13 59 -10 29 -21 125 -49 172 -49 24 0 23 3 -28
53 -49 50 -67 87 -43 87 6 0 45 -18 86 -40 79 -42 114 -49 133 -27 8 10 6 23
-8 50 -17 33 -17 37 -2 37 9 0 50 -16 91 -35 41 -19 76 -30 78 -26 2 5 -6 24
-17 42 -50 82 -11 91 74 19 60 -51 95 -68 114 -55 17 10 13 47 -10 84 -11 18
-18 35 -16 37 2 2 24 -11 48 -29 58 -45 102 -67 133 -67 35 0 38 11 21 66 -24
79 -18 82 43 22 62 -60 89 -78 121 -78 29 0 27 31 -4 80 -27 42 -31 65 -15 75
13 8 47 -11 99 -57 32 -28 52 -38 70 -36 23 3 26 8 25 38 0 19 -4 44 -9 55 -6
14 4 8 33 -17 22 -20 54 -43 69 -52 36 -18 103 -31 103 -19 0 4 -16 32 -35 60
-19 29 -35 54 -35 57 0 3 26 -10 58 -29 31 -18 76 -39 100 -46 37 -11 45 -10
59 4 14 14 14 19 -5 56 -22 41 -16 55 9 24 20 -23 72 -43 114 -43 39 0 44 13
18 49 -16 24 -16 24 13 17 16 -3 46 -9 66 -12 34 -6 37 -5 40 22 3 24 10 30
58 45 30 9 125 50 210 91 85 42 199 96 253 121 53 26 97 51 97 57 0 10 -95 12
-135 3z"/>
<path d="M1127 9485 c-3 -41 -8 -79 -11 -84 -4 -5 -30 15 -60 44 -59 60 -99
76 -123 53 -13 -14 -13 -19 2 -47 8 -17 13 -36 10 -41 -9 -15 -53 -12 -80 6
-13 8 -38 14 -57 12 -29 -3 -33 -6 -31 -30 2 -28 1 -28 -56 -28 -57 0 -58 -1
-67 -32 -9 -31 -13 -33 -57 -36 -40 -3 -55 -10 -85 -40 -21 -20 -71 -55 -112
-78 -41 -23 -124 -68 -183 -100 -108 -59 -172 -108 -161 -125 10 -17 39 -9
139 36 55 25 118 50 140 56 22 6 68 21 102 35 41 16 81 24 123 24 69 0 95 10
127 48 l23 27 0 -42 c0 -24 3 -43 8 -43 4 0 32 16 62 36 l55 35 3 -51 c4 -66
23 -66 98 3 32 28 55 44 51 34 -4 -11 -10 -30 -13 -44 -14 -53 39 -46 130 16
54 37 66 39 66 7 0 -72 27 -73 139 -3 l36 21 -23 -31 c-25 -35 -28 -59 -9 -66
22 -8 98 21 153 57 30 20 54 34 54 32 0 -2 -12 -29 -26 -60 -21 -46 -23 -60
-14 -71 18 -22 38 -19 118 20 40 19 72 32 72 29 0 -3 -13 -19 -30 -34 -88 -82
27 -81 146 0 25 18 47 30 50 28 2 -3 -3 -24 -11 -48 -18 -52 -19 -80 -2 -80
32 0 90 24 146 60 33 22 61 38 61 36 0 -2 -12 -29 -26 -60 -40 -88 -20 -98 75
-36 112 73 152 59 66 -22 -25 -23 -45 -49 -45 -57 0 -21 49 -8 106 29 50 31
94 39 94 17 0 -7 -11 -29 -25 -49 -29 -44 -31 -58 -7 -58 25 0 119 46 174 85
26 19 48 33 48 30 0 -2 -20 -32 -44 -67 -83 -119 -66 -141 49 -62 80 54 114
69 128 55 7 -7 -7 -28 -42 -63 -28 -28 -50 -59 -48 -68 4 -22 49 -14 116 19
31 16 67 32 81 36 23 7 23 5 -10 -29 -29 -31 -32 -38 -20 -46 22 -14 32 -13
108 15 38 14 72 25 76 25 3 0 -12 -18 -34 -40 -49 -49 -55 -90 -14 -90 39 0
141 58 179 102 43 51 61 114 47 168 -7 28 -7 62 1 110 11 76 1 135 -23 135 -9
0 -33 -35 -57 -80 -22 -44 -46 -81 -52 -83 -8 -3 -11 29 -11 100 0 108 -12
150 -43 156 -19 4 -47 -50 -47 -90 0 -13 -7 -34 -16 -47 l-17 -24 -13 24 c-7
13 -16 44 -20 69 -10 69 -34 121 -53 118 -9 -2 -27 -30 -41 -66 -14 -34 -29
-63 -35 -62 -5 0 -11 22 -11 50 -2 60 -30 111 -67 124 -40 14 -68 -17 -75 -83
-8 -88 -41 -75 -62 24 -6 29 -17 61 -25 71 -13 18 -14 18 -34 0 -11 -10 -28
-41 -37 -70 -9 -28 -20 -54 -23 -59 -4 -4 -15 26 -25 66 -20 88 -41 124 -61
107 -8 -7 -15 -32 -17 -57 -4 -57 -27 -76 -57 -49 -11 10 -23 35 -26 55 -14
87 -28 131 -46 147 -18 16 -20 16 -39 -1 -11 -10 -28 -44 -36 -74 -9 -31 -20
-60 -24 -64 -4 -5 -17 22 -28 60 -12 37 -28 77 -35 87 -14 19 -16 19 -46 -11
-17 -18 -31 -42 -31 -55 0 -13 -7 -33 -15 -44 -14 -18 -16 -18 -29 -1 -8 10
-17 38 -20 62 -8 47 -39 95 -62 95 -8 0 -26 -11 -40 -25 -20 -20 -24 -34 -23
-70 2 -24 -1 -48 -5 -52 -12 -13 -40 12 -67 61 -52 94 -84 100 -95 16 -4 -27
-10 -50 -15 -50 -10 0 -40 31 -82 87 -36 46 -63 67 -77 58 -5 -3 -12 -28 -16
-56 -4 -27 -10 -52 -14 -54 -9 -6 -51 40 -95 103 -17 23 -33 42 -36 42 -3 0
-9 -34 -12 -75z"/>
<path d="M4823 9111 c-17 -11 -55 -48 -83 -83 -84 -100 -102 -101 -64 -3 30
81 30 85 1 85 -27 0 -123 -95 -151 -148 -9 -18 -18 -32 -21 -32 -2 0 -2 29 2
64 3 36 3 72 0 81 -16 39 -115 -53 -163 -151 -14 -29 -34 -60 -45 -69 -17 -17
-19 -17 -25 -1 -4 10 -2 54 3 99 11 87 8 107 -12 107 -24 0 -94 -88 -129 -164
-48 -105 -68 -100 -47 13 11 53 5 71 -20 71 -28 0 -66 -58 -100 -151 -52 -143
-85 -146 -74 -8 5 63 3 79 -10 93 -38 38 -68 3 -111 -129 -26 -80 -38 -104
-50 -93 -3 4 -14 39 -24 78 -10 40 -23 77 -28 82 -17 17 -43 -30 -75 -132 -18
-56 -36 -102 -42 -102 -5 1 -15 26 -21 56 -28 142 -72 96 -109 -114 l-22 -125
-40 85 c-86 179 -110 160 -133 -101 -11 -120 -10 -140 4 -167 39 -75 180 -131
217 -86 12 14 9 21 -24 48 -68 57 -48 60 64 11 86 -37 139 -45 139 -20 0 8
-22 40 -50 70 -83 91 -53 120 41 40 54 -46 100 -62 144 -51 36 9 31 32 -20 84
-76 77 -60 81 62 17 87 -46 139 -57 149 -30 4 8 0 24 -7 34 -8 10 -29 37 -46
61 -30 39 -35 60 -13 60 4 0 27 -16 50 -35 43 -36 81 -50 166 -62 l49 -6 -63
69 c-56 62 -77 104 -53 104 5 0 38 -20 75 -45 76 -53 111 -68 137 -60 26 9 24
30 -11 92 -17 29 -28 53 -24 53 3 0 34 -20 68 -45 148 -105 205 -91 135 33
-17 30 -29 55 -27 57 2 2 30 -19 63 -46 101 -83 131 -80 121 15 -3 34 -9 72
-12 86 -5 19 3 12 33 -25 59 -74 119 -125 148 -125 29 0 30 8 10 74 -8 27 -13
51 -10 54 2 3 28 -20 57 -51 52 -55 92 -75 124 -63 14 5 15 16 10 68 l-7 61
57 -52 c109 -99 131 -103 120 -17 -4 28 -10 62 -13 76 -5 20 7 12 68 -43 69
-63 111 -88 126 -73 10 10 5 74 -12 128 -8 28 -14 53 -12 54 2 2 20 -17 41
-41 39 -47 127 -105 160 -105 19 0 19 22 0 134 -6 30 -4 29 46 -27 52 -58 94
-87 126 -87 14 0 16 8 10 60 -4 33 -4 60 -1 60 4 0 26 -15 49 -34 83 -69 123
-67 112 4 l-7 43 28 -30 c55 -59 103 -51 103 17 0 20 3 39 6 43 4 3 21 -10 40
-30 33 -34 35 -35 56 -19 61 45 87 56 152 67 95 16 206 6 304 -27 86 -29 114
-28 105 6 -16 60 -190 122 -428 151 -132 16 -145 21 -145 59 0 16 -4 30 -8 30
-4 0 -32 -16 -62 -35 -30 -19 -58 -35 -63 -35 -4 0 -7 15 -5 33 l3 32 -65 -3
c-52 -3 -63 -1 -52 9 6 7 12 24 12 37 0 32 -24 24 -119 -39 -41 -27 -76 -47
-78 -45 -3 2 0 21 6 43 14 51 14 73 -2 73 -7 0 -49 -25 -93 -55 -43 -30 -81
-50 -82 -44 -2 5 3 28 12 51 9 22 15 43 12 45 -12 12 -102 -34 -147 -75 -41
-37 -50 -41 -55 -27 -4 9 1 32 10 51 25 54 22 68 -16 60 -31 -6 -51 -20 -137
-93 l-44 -38 27 52 c59 118 17 113 -155 -18 -43 -32 -80 -59 -82 -59 -3 0 6
29 19 65 38 105 31 124 -33 86z"/>
<path d="M1612 8673 c-5 -10 -17 -42 -26 -70 -10 -29 -21 -53 -26 -53 -5 0
-30 29 -56 65 -26 36 -54 65 -61 65 -7 0 -20 -25 -28 -55 -9 -30 -20 -57 -24
-59 -4 -3 -29 19 -55 49 -66 77 -76 74 -91 -22 -4 -24 -9 -43 -12 -43 -3 0
-25 21 -48 46 -37 39 -48 45 -76 42 -28 -2 -34 -8 -41 -35 -5 -18 -12 -34 -16
-37 -5 -3 -32 6 -61 20 -29 13 -59 24 -67 24 -8 0 -21 -18 -30 -40 -9 -22 -18
-40 -21 -40 -3 0 -19 11 -35 26 -24 20 -40 24 -72 22 l-41 -3 1 -42 c1 -48 -8
-53 -57 -27 -17 8 -45 14 -62 12 -29 -3 -32 -6 -31 -35 l2 -32 -42 5 c-35 5
-65 -3 -187 -50 -219 -86 -269 -115 -222 -130 77 -24 273 -33 336 -15 46 12
53 8 37 -21 -19 -36 -3 -35 55 3 30 21 57 37 59 37 3 0 2 -16 -1 -35 -5 -30
-2 -36 19 -46 20 -9 32 -8 58 6 34 18 60 14 60 -8 0 -8 6 -20 14 -26 11 -9 31
4 101 69 48 45 89 79 92 77 2 -3 -4 -32 -13 -66 -30 -106 -4 -105 124 7 34 30
62 52 62 49 0 -2 -12 -30 -26 -61 -43 -94 -18 -96 110 -10 43 30 82 54 87 54
4 0 1 -16 -7 -35 -40 -97 5 -101 111 -8 27 23 53 43 56 43 4 0 0 -22 -8 -49
-32 -99 10 -108 99 -21 34 33 63 60 64 60 1 0 0 -34 -3 -75 -5 -65 -4 -75 10
-75 17 0 114 81 154 129 29 33 29 24 -2 -62 -14 -39 -22 -74 -18 -78 16 -16
118 46 179 108 l63 63 -44 -92 c-24 -51 -43 -94 -41 -95 2 -2 49 25 104 59 56
33 105 59 108 55 3 -3 -6 -26 -21 -51 -47 -80 -11 -84 107 -14 38 22 71 39 73
36 2 -2 -9 -24 -25 -48 -17 -25 -30 -51 -30 -57 0 -23 49 -14 127 22 42 19 78
35 80 35 2 0 -15 -25 -38 -55 -74 -98 -35 -116 84 -40 107 68 146 54 67 -24
-22 -22 -40 -44 -40 -50 0 -24 71 -10 144 28 42 22 76 37 76 35 0 -3 -16 -28
-35 -57 -69 -102 -34 -115 90 -32 45 30 84 55 88 55 3 0 -6 -25 -19 -55 -45
-97 -11 -107 80 -24 69 63 81 92 67 159 -17 77 -13 116 14 168 29 54 32 113 9
137 -22 22 -35 9 -91 -87 -24 -43 -49 -78 -54 -78 -5 0 -9 42 -9 94 0 58 -4
97 -11 102 -19 11 -51 -32 -74 -100 l-22 -66 -7 98 c-11 164 -36 212 -82 159
-22 -26 -64 -145 -64 -181 0 -9 -4 -16 -9 -16 -4 0 -11 30 -15 68 -17 179 -64
204 -107 58 -12 -39 -25 -74 -28 -79 -4 -4 -13 16 -21 45 -18 72 -59 157 -81
168 -23 13 -44 -15 -65 -88 -16 -55 -39 -76 -55 -51 -5 8 -18 42 -29 76 -27
89 -48 125 -68 121 -22 -4 -41 -59 -42 -123 -2 -58 -9 -46 -34 59 -17 70 -38
106 -62 106 -18 0 -43 -40 -58 -92 -7 -23 -18 -44 -23 -45 -6 -2 -30 20 -54
49 -45 55 -68 78 -80 78 -10 0 -29 -57 -29 -86 0 -45 -18 -32 -56 39 -40 73
-65 92 -82 60z"/>
<path d="M5635 8435 c-37 -30 -71 -55 -76 -55 -5 0 -9 14 -9 31 0 38 -16 69
-36 69 -9 0 -49 -32 -88 -70 -40 -39 -75 -68 -78 -65 -3 3 -1 31 4 62 11 71 2
82 -49 57 -29 -15 -44 -32 -65 -76 -15 -32 -32 -58 -38 -58 -5 0 -10 22 -10
48 0 27 -3 51 -6 55 -11 11 -57 -20 -109 -72 -60 -62 -75 -65 -68 -13 4 27 1
42 -11 51 -14 12 -22 7 -64 -35 -26 -27 -57 -62 -70 -79 l-23 -30 4 46 c4 48
-6 79 -26 79 -6 0 -40 -30 -74 -66 -44 -48 -66 -65 -78 -60 -12 4 -15 11 -9
24 4 9 8 33 8 52 1 30 -2 35 -19 32 -29 -5 -94 -53 -110 -82 -7 -14 -19 -39
-25 -57 -7 -17 -18 -34 -26 -37 -11 -4 -14 6 -14 43 0 64 -7 81 -35 81 -16 0
-38 -20 -79 -76 -32 -41 -61 -74 -67 -72 -5 2 -19 23 -31 48 -40 80 -78 62
-128 -60 -42 -100 -70 -105 -70 -12 0 79 -8 89 -54 67 -24 -12 -51 -39 -82
-86 -25 -38 -50 -72 -56 -75 -17 -11 -28 18 -28 78 0 31 -4 59 -9 62 -14 9
-60 -33 -81 -73 -10 -21 -24 -68 -30 -105 -7 -36 -14 -66 -15 -66 -2 0 -11 26
-20 57 -22 74 -42 113 -59 113 -17 0 -44 -57 -80 -168 -15 -45 -32 -80 -36
-77 -5 3 -14 32 -21 65 -6 33 -17 67 -24 77 -12 16 -15 15 -43 -15 -35 -38
-60 -104 -69 -184 -3 -32 -9 -58 -12 -58 -3 0 -24 37 -46 83 -22 45 -44 82
-50 82 -15 0 -53 -75 -59 -119 -19 -128 67 -321 165 -371 55 -29 63 -15 24 43
-56 82 -22 100 86 43 134 -70 167 -50 77 45 l-52 55 84 -40 c98 -48 140 -53
140 -18 0 12 -6 31 -13 42 -8 11 -22 34 -33 50 l-19 30 28 -18 c99 -64 171
-84 183 -52 4 8 -1 34 -10 56 -9 23 -15 44 -12 46 3 3 31 -11 64 -31 104 -65
156 -47 115 38 -13 25 -19 47 -15 50 4 2 45 -13 91 -35 46 -21 85 -39 86 -39
2 0 -8 29 -23 65 -14 36 -22 68 -19 72 4 3 46 -14 95 -40 48 -25 101 -47 117
-49 27 -3 30 0 33 28 2 17 -5 57 -16 88 -19 57 -16 70 9 39 28 -34 93 -73 121
-73 40 0 46 25 18 77 -13 24 -21 45 -19 48 3 2 40 -16 83 -41 42 -25 84 -43
92 -40 8 3 14 19 14 36 0 40 16 70 37 70 9 0 32 -17 52 -39 43 -46 74 -63 96
-55 14 6 16 16 10 69 -9 90 11 94 109 23 21 -15 50 -28 64 -28 21 0 23 3 18
25 -3 14 -9 36 -12 50 -11 46 22 42 76 -9 51 -47 94 -71 116 -62 9 4 10 14 2
45 -21 83 15 94 82 26 31 -32 52 -45 72 -45 30 0 31 2 32 65 1 60 29 58 94 -5
28 -29 58 -50 64 -47 8 2 13 21 13 43 0 36 2 39 27 37 14 -1 50 -18 78 -37 84
-58 124 -40 83 36 -12 21 -19 38 -16 38 2 0 24 -12 48 -26 29 -17 55 -24 77
-22 29 3 33 6 31 31 -2 29 -2 29 46 22 37 -5 50 -3 61 10 10 12 23 14 56 9 33
-5 48 -2 71 15 35 25 144 53 343 86 85 14 172 30 193 36 38 10 49 32 21 43 -9
3 -118 6 -242 6 -191 0 -232 3 -257 16 -16 9 -42 16 -57 15 -16 -1 -28 2 -28
7 0 4 -6 16 -13 26 -12 17 -17 17 -51 5 -37 -13 -39 -13 -62 14 -12 15 -27 27
-31 27 -4 0 -28 -16 -53 -36 l-45 -36 -5 44 c-7 58 -29 60 -109 8 -35 -23 -65
-39 -67 -37 -2 2 3 25 12 50 16 47 14 77 -5 77 -5 0 -40 -25 -76 -55z"/>
<path d="M1460 7905 c-12 -14 -10 -44 5 -92 6 -20 4 -23 -19 -23 -20 0 -32 8
-44 31 -29 53 -53 79 -71 79 -27 0 -52 -34 -58 -79 -3 -23 -8 -41 -11 -41 -3
0 -33 30 -67 67 -54 59 -64 66 -78 55 -10 -9 -17 -34 -19 -70 -3 -56 -3 -57
-16 -27 -26 58 -61 95 -92 95 -34 0 -44 -15 -55 -79 l-7 -45 -44 47 c-53 58
-90 69 -116 37 -11 -13 -16 -31 -13 -41 9 -27 -2 -24 -42 11 -50 45 -95 39
-108 -13 -9 -34 -26 -34 -73 -2 -38 26 -76 32 -87 15 -3 -5 2 -24 11 -41 l16
-32 -29 7 c-86 19 -94 19 -123 -2 -16 -13 -36 -19 -45 -16 -10 4 -27 -4 -45
-21 -25 -24 -32 -26 -45 -15 -13 11 -19 9 -38 -9 -15 -13 -36 -21 -59 -21 -59
0 -116 -60 -70 -74 9 -3 66 -15 125 -25 60 -11 115 -25 122 -31 11 -9 24 -6
60 13 50 28 54 27 25 -10 -50 -64 -7 -70 87 -13 37 22 71 40 75 40 21 0 18
-34 -6 -70 -26 -39 -32 -61 -20 -73 11 -11 67 23 118 72 42 39 48 42 41 21
-25 -86 5 -101 95 -46 32 20 60 36 63 36 2 0 -3 -20 -12 -45 -32 -89 23 -80
138 23 36 31 62 50 59 42 -63 -171 -44 -189 91 -85 91 71 126 85 96 38 -10
-14 -33 -46 -51 -70 -36 -47 -40 -58 -24 -68 16 -10 67 23 152 100 45 40 83
73 85 72 1 -1 -8 -35 -20 -75 -37 -125 11 -116 123 22 29 36 55 64 57 62 2 -2
-1 -32 -7 -66 -12 -66 -7 -110 12 -110 6 0 25 16 42 36 83 97 93 107 105 99
10 -5 11 -26 6 -80 -10 -110 3 -110 128 5 37 34 70 61 72 58 2 -2 -5 -34 -17
-72 -33 -109 -4 -110 122 -1 68 59 111 74 89 33 -6 -13 -23 -38 -36 -56 -13
-18 -23 -36 -21 -41 7 -18 100 17 134 50 25 24 37 30 45 22 8 -8 2 -27 -22
-72 -22 -40 -30 -64 -24 -70 13 -13 93 23 174 78 33 23 63 41 66 41 3 0 -7
-19 -23 -42 -29 -43 -62 -102 -62 -113 0 -3 13 -5 28 -5 19 0 47 16 86 49 51
43 102 68 115 55 3 -2 -6 -26 -18 -52 -31 -62 -40 -97 -31 -111 13 -23 78 15
157 91 42 40 74 69 72 63 -2 -5 -20 -39 -40 -75 -47 -83 -55 -108 -36 -116 22
-8 72 21 138 82 32 30 61 54 65 54 3 0 -8 -18 -25 -39 -27 -34 -61 -99 -61
-116 0 -3 12 -5 26 -5 37 0 136 55 190 106 44 40 46 45 39 81 -4 21 -9 96 -11
167 -4 143 -13 182 -50 217 -31 29 -37 22 -61 -78 -9 -40 -20 -73 -24 -73 -3
0 -9 15 -12 33 -9 53 -47 146 -73 175 -28 32 -33 28 -66 -61 -25 -69 -27 -67
-86 41 l-40 74 -11 -66 c-15 -85 -27 -116 -45 -116 -16 0 -21 13 -31 80 -12
74 -45 117 -79 104 -16 -6 -46 -74 -46 -104 0 -43 -20 -25 -68 63 -28 51 -54
100 -58 110 -11 30 -19 19 -38 -55 -10 -40 -24 -83 -30 -96 -11 -21 -14 -16
-34 52 -12 41 -33 87 -46 103 -23 26 -26 27 -41 12 -10 -10 -20 -44 -25 -84
-14 -113 -39 -113 -70 -1 -46 166 -74 166 -103 -2 l-13 -77 -38 75 c-71 140
-131 171 -150 77 -3 -15 -9 -39 -12 -54 l-6 -28 -20 40 c-42 84 -105 120 -138
80z"/>
<path d="M4872 7744 c-45 -41 -86 -73 -92 -69 -5 3 -10 21 -10 40 0 48 -9 65
-36 65 -21 0 -53 -31 -123 -120 l-19 -25 -7 30 c-11 50 -24 75 -39 75 -23 0
-69 -61 -100 -133 -16 -37 -34 -66 -40 -64 -6 2 -13 23 -16 48 -13 110 -62 88
-115 -52 -15 -39 -34 -73 -42 -76 -8 -3 -30 9 -52 31 -38 37 -79 47 -99 23 -6
-7 -12 -37 -14 -67 -4 -75 -23 -77 -93 -11 -30 28 -58 51 -63 51 -28 0 -66
-74 -93 -180 l-11 -45 -32 65 c-17 35 -39 69 -48 74 -39 23 -70 -29 -84 -139
l-6 -50 -28 61 c-15 33 -35 64 -44 67 -29 11 -63 -34 -77 -102 -7 -34 -15 -61
-19 -61 -3 0 -15 23 -27 50 -16 36 -27 50 -42 50 -42 0 -71 -62 -71 -150 l0
-45 -39 43 c-44 48 -64 48 -81 -1 -23 -66 -23 -139 -1 -197 26 -67 141 -226
171 -235 39 -12 51 32 28 106 -6 22 -8 42 -5 46 9 9 86 -46 110 -79 27 -36 64
-38 73 -2 4 14 4 46 0 72 -4 35 -2 53 10 70 20 29 27 28 71 -12 21 -18 48 -38
59 -44 29 -15 103 -31 108 -23 2 3 -5 38 -15 76 -10 39 -19 76 -19 84 0 20 49
8 150 -39 48 -22 89 -40 92 -40 3 0 -9 28 -28 63 -59 109 -38 136 60 76 123
-76 177 -47 106 57 -17 24 -28 44 -25 44 3 0 37 -16 75 -35 86 -43 127 -46
136 -9 4 14 4 49 0 78 l-6 53 45 -44 c31 -32 51 -44 67 -41 20 3 24 10 28 58
7 73 25 76 86 11 27 -28 56 -51 66 -51 24 0 32 38 19 86 -6 21 -8 40 -6 43 3
2 23 -10 45 -28 57 -45 97 -58 118 -37 13 13 14 24 6 66 -13 62 -7 63 75 14
77 -46 94 -43 103 20 4 26 9 51 12 54 4 3 28 -18 55 -47 67 -72 87 -68 83 17
-2 49 1 64 13 68 20 8 42 -11 66 -58 22 -43 62 -69 81 -50 6 6 11 32 12 59 1
68 25 69 85 4 48 -52 71 -63 71 -36 0 26 30 75 45 75 8 0 29 -16 46 -35 36
-39 54 -43 99 -17 34 19 37 17 81 -49 l17 -24 29 28 c34 31 52 33 95 11 25
-13 36 -14 50 -5 11 7 34 9 58 5 30 -5 45 -2 58 9 16 14 22 15 57 2 22 -8 67
-14 100 -15 83 0 187 -18 206 -36 8 -8 35 -14 60 -14 24 -1 55 -7 69 -15 14
-8 37 -14 53 -15 22 0 27 4 27 24 0 37 -48 70 -146 100 -130 40 -186 64 -260
108 -36 22 -81 42 -100 45 -37 6 -40 13 -23 45 11 20 10 21 -51 15 -50 -4 -60
-3 -56 9 3 8 9 20 12 28 3 9 -5 21 -21 32 -25 16 -30 16 -79 1 -29 -10 -55
-17 -59 -17 -3 0 3 20 14 45 11 25 17 50 14 55 -12 19 -107 -18 -171 -66 -17
-13 -33 -24 -36 -24 -3 0 8 25 23 55 26 52 29 85 7 85 -15 0 -67 -29 -120 -67
-27 -20 -51 -33 -54 -31 -2 3 3 24 11 48 24 68 22 73 -30 68 -26 -3 -70 -20
-105 -41 -33 -20 -60 -34 -60 -31 0 3 10 18 21 33 48 65 -20 69 -117 6 -38
-24 -75 -45 -81 -45 -18 0 -16 25 2 40 8 7 15 21 15 32 0 28 -35 18 -106 -29
-59 -39 -72 -37 -94 17 -7 17 -18 30 -25 30 -6 0 -48 -34 -93 -76z"/>
<path d="M5575 7019 c-49 -44 -106 -93 -126 -109 l-36 -29 13 67 c18 89 18
132 1 132 -28 0 -96 -60 -133 -119 -22 -33 -42 -60 -45 -60 -3 -1 -2 26 3 60
7 43 6 64 -2 74 -16 19 -29 11 -120 -70 l-75 -67 -5 76 c-7 115 -34 122 -96
28 -20 -32 -46 -72 -58 -89 -21 -33 -44 -48 -54 -38 -3 3 -1 32 6 63 16 79 15
92 -7 92 -34 0 -79 -49 -117 -126 -21 -41 -41 -74 -46 -74 -4 0 -8 19 -8 43 0
54 -21 87 -47 71 -10 -5 -44 -48 -75 -94 -31 -47 -61 -86 -67 -88 -6 -2 -11 9
-11 25 0 53 -13 105 -27 110 -22 8 -44 -18 -97 -117 -27 -50 -54 -89 -60 -87
-6 2 -13 37 -16 78 -4 57 -9 74 -21 77 -21 4 -60 -44 -115 -141 -25 -43 -48
-75 -53 -73 -4 3 -3 28 3 55 12 62 0 105 -31 109 -26 4 -47 -26 -98 -140 -21
-48 -42 -85 -46 -82 -5 3 -11 21 -15 42 -13 77 -25 112 -39 112 -31 0 -79 -88
-132 -240 -5 -15 -9 -2 -47 133 -11 37 -22 57 -32 57 -20 0 -62 -93 -76 -170
-6 -33 -14 -60 -17 -60 -3 0 -17 25 -30 55 -31 72 -66 111 -86 95 -20 -16 -35
-74 -43 -168 -4 -42 -11 -77 -17 -76 -5 0 -29 24 -52 52 -39 48 -43 50 -48 30
-18 -81 -47 -242 -52 -289 -7 -67 13 -118 61 -154 29 -22 173 -105 183 -105 2
0 -13 31 -32 70 -19 38 -35 72 -35 74 0 3 28 -12 63 -33 72 -44 127 -64 150
-55 10 3 17 8 17 11 0 15 -28 54 -68 95 -25 26 -42 51 -38 55 4 4 49 -14 100
-41 56 -28 103 -46 117 -44 38 5 36 45 -6 107 -19 29 -35 55 -35 57 0 2 19 -8
42 -22 61 -39 140 -74 165 -74 22 0 27 4 62 49 l18 25 37 -22 c46 -27 62 -28
76 -1 9 16 5 32 -21 87 -18 37 -35 71 -38 76 -2 6 18 -6 45 -26 136 -98 191
-88 165 31 -16 76 -14 79 24 34 105 -123 246 -63 149 64 -29 38 -29 43 -6 43
10 0 40 -22 66 -49 58 -59 99 -79 121 -61 21 17 19 36 -10 99 l-25 54 37 -29
c21 -15 49 -36 62 -46 29 -22 77 -24 84 -3 4 8 3 37 0 65 -8 65 6 65 51 -1 41
-61 79 -89 122 -89 51 0 58 19 34 86 -11 32 -20 62 -20 66 0 4 28 -20 63 -55
68 -68 135 -100 163 -76 21 17 18 33 -23 109 -31 57 -36 71 -25 82 11 11 19 6
49 -27 86 -99 95 -106 115 -103 34 5 43 31 32 87 -6 28 -8 51 -5 51 4 0 25
-24 48 -53 23 -29 55 -60 71 -69 26 -16 31 -16 42 -3 9 11 9 25 0 66 -22 92
19 88 75 -7 49 -84 95 -80 95 7 0 27 4 49 9 49 5 0 24 -18 41 -40 38 -47 71
-53 88 -15 7 14 12 32 12 40 0 33 21 22 44 -22 32 -65 61 -90 81 -73 8 7 15
25 15 39 0 15 7 36 15 47 15 18 16 18 39 -11 52 -63 65 -75 81 -69 9 4 15 18
15 35 0 38 9 37 50 -6 35 -36 55 -44 62 -23 7 20 120 21 209 3 100 -20 173
-57 327 -165 63 -44 116 -80 118 -80 3 0 -13 27 -36 60 -120 176 -239 280
-402 349 -31 13 -52 30 -63 51 -14 27 -20 31 -46 25 -27 -6 -31 -3 -44 28 -18
44 -29 51 -76 48 l-38 -2 6 35 c5 31 3 36 -20 41 -26 7 -56 -4 -109 -39 -32
-21 -33 -18 -13 48 10 33 12 53 5 60 -15 15 -108 -18 -165 -59 -27 -19 -50
-33 -52 -31 -2 1 10 27 27 57 33 60 40 119 15 119 -24 0 -74 -28 -138 -78 -32
-24 -60 -42 -63 -40 -3 4 18 87 41 156 8 23 -10 11 -100 -69z"/>
<path d="M2206 7062 c-8 -16 -18 -53 -21 -83 -15 -130 -11 -128 -55 -42 -77
148 -110 152 -126 15 -3 -34 -10 -62 -14 -62 -4 0 -20 17 -35 38 -47 63 -98
112 -117 112 -26 0 -50 -43 -42 -74 l6 -26 -85 41 c-47 22 -91 38 -97 34 -8
-5 -9 -27 -5 -71 7 -57 5 -64 -11 -64 -9 0 -47 32 -84 71 -79 85 -103 89 -108
21 -2 -24 1 -64 6 -88 5 -24 7 -44 3 -44 -3 0 -26 23 -50 51 -52 61 -107 91
-122 69 -6 -8 -8 -42 -5 -75 l6 -60 -36 43 c-58 69 -104 51 -104 -41 l0 -32
-50 53 c-58 62 -91 68 -100 17 -6 -33 -22 -35 -72 -9 -32 17 -84 18 -93 3 -4
-6 -31 -9 -64 -7 l-56 3 -3 -32 c-4 -37 -10 -39 -54 -17 -37 19 -75 16 -191
-19 -99 -30 -250 -61 -344 -72 -35 -4 -63 -11 -63 -15 0 -22 34 -37 97 -43 80
-7 297 -50 365 -73 35 -11 48 -21 48 -35 0 -23 27 -24 83 -5 l38 14 -7 -43
c-5 -38 -3 -45 16 -55 20 -11 32 -7 92 23 l69 36 -21 -33 c-11 -19 -20 -39
-20 -46 0 -21 50 -2 123 46 38 25 71 43 73 41 3 -2 -7 -26 -21 -52 -48 -92
-23 -99 88 -25 41 28 78 50 82 50 3 0 5 -27 3 -59 -1 -33 1 -63 5 -67 15 -16
81 32 130 93 70 88 77 84 51 -30 l-7 -29 29 16 c16 9 60 38 99 65 38 27 71 48
74 46 2 -2 -2 -18 -8 -36 -43 -122 31 -95 143 54 16 21 30 36 32 34 2 -2 -3
-27 -12 -56 -8 -29 -14 -67 -12 -84 5 -48 32 -37 111 43 37 39 67 67 68 62 0
-4 0 -30 -1 -58 -1 -38 3 -53 14 -57 20 -8 59 25 89 75 14 24 35 52 47 63 18
16 23 17 30 5 5 -8 8 -22 6 -30 -3 -8 -7 -36 -11 -62 l-6 -46 79 81 80 81 -14
-79 c-7 -43 -12 -80 -10 -82 2 -2 36 26 75 61 108 97 141 101 102 13 -62 -140
-27 -144 122 -14 30 26 57 47 60 47 4 0 -2 -23 -13 -50 -52 -132 -9 -134 128
-7 29 27 55 47 58 45 2 -3 -1 -28 -7 -56 -10 -41 -10 -54 1 -67 7 -8 16 -15
21 -15 11 0 61 55 104 116 40 56 44 44 15 -47 -10 -35 -17 -65 -15 -67 8 -9
111 86 140 129 27 38 30 52 34 133 4 124 -23 286 -49 286 -14 0 -30 -28 -49
-81 -10 -30 -24 -54 -32 -54 -8 0 -23 32 -39 81 -47 154 -88 153 -108 -1 l-7
-60 -33 70 c-33 70 -77 135 -91 135 -27 0 -44 -31 -50 -91 l-7 -64 -20 34
c-96 168 -125 171 -142 16 l-8 -70 -28 85 c-49 145 -63 163 -90 112z"/>
<path d="M1680 6289 c-11 -19 -7 -92 7 -144 3 -13 -18 3 -58 41 -69 66 -96 84
-128 84 -29 0 -36 -40 -17 -96 9 -26 14 -49 11 -52 -2 -3 -33 14 -67 36 -87
57 -117 67 -137 47 -13 -13 -13 -22 -3 -60 7 -25 12 -50 12 -55 0 -20 -28 -9
-84 35 -85 65 -136 56 -107 -19 18 -47 18 -50 -4 -54 -12 -1 -40 11 -63 28
-71 51 -138 36 -110 -24 22 -51 -20 -77 -57 -36 -29 32 -76 23 -95 -18 -13
-27 -19 -32 -40 -27 -50 11 -55 9 -75 -28 -16 -30 -24 -36 -40 -31 -11 4 -36
7 -55 8 -33 1 -35 -1 -34 -29 0 -16 4 -38 8 -47 6 -14 3 -18 -13 -18 -27 0
-91 -32 -151 -75 -25 -18 -101 -67 -169 -110 -125 -79 -191 -129 -191 -146 0
-19 74 -7 167 27 247 91 262 95 372 104 77 6 122 15 150 29 42 22 71 27 71 13
0 -5 6 -16 13 -26 19 -26 41 -11 88 60 23 36 43 63 45 61 2 -2 -3 -43 -12 -91
-8 -49 -13 -90 -11 -92 2 -3 51 50 108 116 56 66 104 120 105 120 1 0 -7 -27
-17 -61 -41 -131 -12 -157 68 -62 87 103 121 138 129 131 4 -4 -3 -30 -15 -57
-25 -59 -27 -104 -5 -122 25 -20 40 -3 97 105 29 55 58 101 65 104 18 6 15
-40 -8 -98 -27 -67 -26 -80 6 -80 31 0 94 58 94 87 0 21 27 63 41 63 5 0 9
-27 9 -60 0 -57 1 -60 25 -60 19 0 40 18 86 75 80 98 98 101 59 10 -38 -88
-20 -118 45 -75 36 24 68 26 85 5 22 -27 47 -16 125 55 43 39 80 68 83 66 2
-3 -3 -23 -12 -46 -9 -22 -16 -54 -16 -70 0 -46 29 -38 107 29 37 33 69 59 70
57 2 -1 -5 -21 -14 -45 -33 -85 23 -77 130 19 31 28 57 50 57 48 0 -3 -11 -38
-25 -78 -14 -40 -25 -75 -25 -78 0 -2 32 25 71 59 97 89 128 113 135 106 4 -3
-10 -33 -30 -65 -85 -140 -18 -134 143 12 31 28 57 44 59 38 2 -7 -10 -35 -28
-63 -34 -57 -48 -103 -31 -113 25 -16 112 57 157 133 10 17 25 30 34 29 16 -4
17 -20 5 -104 -14 -96 36 -75 94 39 55 110 61 210 18 326 -26 72 -55 119 -80
133 -29 15 -55 -19 -63 -83 -4 -27 -10 -49 -13 -49 -4 0 -13 24 -20 53 -18 70
-58 147 -76 147 -26 0 -36 -46 -25 -113 6 -40 6 -65 0 -71 -12 -12 -27 7 -66
79 -36 67 -63 95 -91 95 -22 0 -23 -2 -17 -54 7 -60 -1 -110 -17 -101 -5 4
-22 32 -38 63 -16 31 -38 68 -50 82 -31 37 -43 12 -37 -72 3 -38 1 -68 -3 -68
-4 0 -18 19 -30 43 -93 169 -133 188 -146 69 -14 -129 -27 -132 -64 -16 -21
63 -30 80 -47 82 -28 4 -60 -37 -69 -88 -4 -22 -10 -40 -14 -40 -5 0 -29 27
-55 60 -51 65 -79 85 -103 76 -12 -5 -14 -16 -8 -52 3 -26 8 -52 11 -58 7 -18
-11 -37 -30 -30 -9 3 -28 27 -43 53 -51 90 -90 114 -113 70z"/>
<path d="M5060 6125 c-41 -41 -79 -75 -84 -75 -5 0 -6 28 -3 65 4 36 2 67 -3
70 -25 15 -105 -54 -154 -132 -45 -74 -74 -43 -36 38 13 27 21 52 17 55 -14
15 -60 -10 -115 -61 -33 -30 -63 -55 -66 -55 -4 0 -6 30 -4 67 3 58 1 68 -15
71 -22 4 -128 -101 -146 -146 -19 -45 -31 -30 -31 38 0 100 -21 92 -105 -37
-30 -45 -60 -83 -66 -83 -7 0 -9 23 -4 75 6 64 5 76 -9 81 -23 9 -48 -16 -95
-95 -64 -109 -94 -118 -84 -26 10 81 -37 64 -84 -30 -29 -57 -62 -97 -74 -89
-5 3 -9 32 -9 64 0 32 -5 62 -11 66 -20 12 -57 -40 -86 -120 -34 -94 -53 -109
-53 -42 0 145 -59 120 -125 -53 l-28 -75 -24 54 c-13 30 -31 62 -40 72 -41 45
-79 1 -92 -105 l-7 -62 -32 68 c-36 73 -60 85 -86 44 -62 -93 -27 -341 60
-431 56 -58 84 -47 84 35 0 47 10 49 45 7 29 -35 61 -57 83 -58 19 0 30 39 22
82 -4 21 -3 38 1 38 5 0 29 -16 55 -35 70 -54 144 -43 144 21 0 24 1 24 24 8
57 -37 108 16 74 77 -10 16 -15 29 -12 29 2 0 28 -13 57 -30 64 -36 111 -39
127 -9 10 17 7 30 -13 70 -13 27 -22 49 -20 49 3 0 23 -16 45 -35 96 -81 199
-64 153 25 -9 18 -14 34 -12 37 3 2 30 -10 61 -27 90 -51 141 -30 120 50 -6
22 -8 40 -4 40 4 0 25 -14 46 -31 50 -40 87 -59 115 -59 22 0 22 8 4 53 -9 23
6 22 55 -3 22 -11 53 -20 71 -20 30 0 31 1 25 31 -8 39 9 63 34 49 9 -5 33
-25 53 -45 42 -42 94 -50 82 -12 -19 63 -19 67 10 67 15 0 40 -11 57 -25 53
-45 116 -24 101 33 -8 31 4 27 35 -9 59 -71 144 -111 158 -75 3 8 -4 32 -15
54 -20 40 -19 72 2 72 5 0 36 -25 68 -55 83 -79 125 -71 101 19 -6 22 -9 42
-8 43 2 2 23 -13 48 -32 79 -62 155 -58 122 6 -15 31 -10 59 12 59 8 0 31 -16
53 -35 63 -57 128 -40 103 28 -6 17 -10 32 -9 33 1 2 33 -6 71 -18 55 -17 72
-18 93 -9 25 12 26 20 7 65 -8 21 -11 21 59 -8 37 -16 37 -16 46 7 5 14 22 34
36 45 66 52 253 120 400 145 99 17 145 32 145 46 0 16 -33 23 -137 28 -80 5
-113 2 -154 -11 -38 -13 -68 -16 -104 -11 -34 4 -62 2 -79 -7 -25 -11 -30 -10
-42 7 -14 18 -16 17 -62 -28 -54 -53 -64 -57 -62 -24 6 66 -21 76 -90 32 -52
-33 -56 -32 -31 11 28 47 27 54 -10 44 -42 -12 -77 -36 -118 -79 l-33 -36 6
68 c4 37 4 67 1 67 -4 0 -43 -31 -87 -70 -44 -38 -84 -67 -88 -65 -5 3 -2 26
6 52 33 109 5 110 -98 3 -80 -84 -116 -102 -104 -52 4 15 9 48 13 75 4 38 3
47 -9 47 -24 0 -62 -34 -120 -107 -61 -77 -67 -72 -48 45 6 40 10 75 8 78 -2
2 -37 -30 -78 -71z"/>
<path d="M5116 5585 c-16 -9 -58 -40 -92 -70 -34 -30 -65 -55 -68 -55 -3 0 -6
22 -6 49 0 63 -17 79 -54 50 -14 -11 -37 -40 -51 -64 -14 -24 -32 -49 -40 -55
-13 -11 -15 -4 -15 43 0 44 -4 58 -18 66 -22 12 -43 1 -99 -51 -24 -21 -46
-38 -51 -38 -5 0 -16 16 -25 35 -9 19 -24 35 -33 35 -23 0 -94 -74 -94 -98 0
-59 -44 -74 -55 -19 -12 59 -16 67 -36 67 -13 0 -32 -21 -59 -62 -71 -113 -65
-110 -89 -55 -37 86 -71 76 -116 -34 -24 -57 -35 -74 -50 -74 -17 0 -21 9 -25
54 -3 30 -10 56 -16 58 -16 5 -69 -58 -101 -120 -25 -49 -27 -51 -34 -27 -4
14 -8 36 -8 50 -2 42 -16 56 -44 43 -31 -14 -62 -79 -78 -162 l-12 -64 -41 84
c-35 72 -45 84 -66 84 -22 0 -26 -6 -37 -55 -7 -30 -16 -77 -19 -105 l-7 -50
-29 65 c-29 64 -54 100 -69 100 -15 0 -40 -61 -50 -122 -12 -77 4 -205 35
-274 26 -58 99 -138 118 -131 9 3 12 25 11 82 l-3 78 41 -47 c61 -69 97 -60
79 20 -10 43 -5 74 13 74 17 0 29 -10 59 -52 29 -38 71 -55 108 -43 22 7 26
37 11 78 -6 14 -7 27 -5 30 3 3 35 -8 71 -25 103 -47 148 -26 108 51 -8 17
-12 31 -8 31 5 0 40 -14 80 -31 92 -41 103 -37 96 35 -4 37 -2 56 5 56 6 0 14
-5 18 -11 12 -20 95 -52 106 -41 5 5 12 29 15 53 8 74 10 74 59 20 67 -75 94
-68 94 25 0 24 3 44 6 44 3 0 32 -21 64 -46 32 -25 64 -43 69 -39 6 3 11 26
11 50 0 24 4 46 9 49 5 4 24 -12 42 -35 57 -72 109 -71 109 1 0 22 4 40 9 40
5 0 22 -15 39 -34 71 -81 115 -81 111 -2 -1 23 -1 47 0 54 3 26 40 10 93 -43
31 -30 63 -55 72 -55 24 0 38 37 31 83 l-6 42 53 -57 c88 -94 122 -100 134
-23 l7 47 41 -41 c23 -23 49 -41 58 -41 18 0 38 48 38 94 l0 30 49 -53 c35
-38 55 -52 66 -47 9 3 18 6 21 6 2 0 10 16 18 35 16 38 27 43 46 20 17 -21 40
-19 67 7 20 19 27 20 41 10 36 -25 44 -24 81 12 31 31 43 36 65 30 17 -4 43 1
74 14 26 12 138 43 247 71 253 64 245 62 245 72 0 4 -116 9 -257 11 -249 3
-260 4 -302 27 -35 18 -55 22 -97 19 -47 -4 -51 -3 -42 12 6 9 8 29 4 45 -6
24 -10 27 -37 21 -16 -3 -49 -19 -73 -35 -48 -33 -88 -46 -112 -37 -14 5 -12
12 10 50 14 25 26 49 26 55 0 23 -50 9 -116 -34 -38 -24 -71 -40 -72 -34 -2 5
1 24 7 41 15 44 14 68 -5 68 -9 0 -48 -22 -88 -50 -40 -27 -77 -50 -83 -50 -8
0 -6 15 3 47 27 89 8 94 -78 17 -112 -100 -159 -109 -108 -20 29 52 38 86 23
86 -5 0 -21 -7 -37 -15z"/>
<path d="M2592 5445 l5 -105 -76 80 c-42 44 -84 80 -93 80 -23 0 -31 -30 -22
-85 3 -25 2 -45 -3 -45 -5 0 -32 27 -61 60 -76 86 -98 79 -109 -34 -3 -36 -9
-66 -13 -66 -4 0 -20 17 -36 38 -45 59 -75 82 -105 82 -36 0 -52 -28 -43 -75
7 -37 -7 -65 -33 -65 -7 0 -36 20 -62 45 -51 47 -88 57 -111 30 -10 -12 -10
-21 -1 -42 6 -14 10 -28 7 -30 -2 -2 -36 12 -76 32 -42 21 -83 35 -98 33 -26
-3 -27 -5 -25 -66 l2 -63 -37 22 c-92 55 -127 62 -156 33 -20 -19 -20 -17 4
-65 35 -68 9 -76 -94 -28 -69 33 -92 34 -109 7 -8 -12 -4 -31 19 -77 17 -34
29 -61 27 -61 -2 0 -29 11 -61 24 -82 34 -114 39 -137 22 -19 -14 -19 -15 -1
-66 10 -28 16 -53 14 -56 -3 -2 -35 5 -72 16 -133 42 -177 13 -116 -76 17 -26
29 -48 27 -50 -2 -2 -19 1 -38 6 -44 13 -125 13 -150 0 -25 -14 -24 -28 2 -57
32 -33 12 -54 -46 -46 -35 4 -46 2 -64 -16 -26 -26 -27 -47 -1 -63 30 -19 24
-28 -15 -28 -36 0 -108 -30 -120 -50 -4 -6 -2 -17 4 -24 9 -11 4 -18 -22 -33
-22 -14 -43 -41 -65 -86 -18 -36 -102 -162 -187 -279 -166 -228 -215 -312
-197 -330 15 -15 35 2 82 72 70 104 367 370 412 370 10 0 26 17 39 42 l22 42
23 -27 c13 -15 26 -27 29 -27 3 0 20 29 36 65 33 68 44 78 54 45 15 -47 79 -6
90 59 10 62 40 59 74 -6 28 -55 71 4 71 97 0 55 15 67 25 21 3 -16 14 -36 24
-45 16 -14 19 -14 40 1 13 9 40 50 59 92 l35 76 11 -49 c6 -27 16 -51 22 -53
18 -6 71 56 89 105 10 26 22 53 28 59 18 24 29 1 23 -48 -4 -29 -3 -49 3 -49
5 0 38 38 73 85 34 46 66 84 70 85 4 0 6 -12 3 -27 -20 -127 -14 -146 33 -117
36 21 66 58 75 94 9 33 19 48 36 52 11 2 14 -9 12 -49 -2 -47 0 -53 18 -53 32
0 89 57 101 100 6 21 18 44 27 51 15 13 16 8 10 -61 -4 -41 -10 -86 -14 -100
-6 -22 0 -19 57 25 61 48 84 81 124 178 25 60 39 47 30 -30 -12 -105 -11 -117
9 -121 28 -6 86 63 123 146 52 112 65 96 42 -50 -6 -43 -8 -81 -5 -85 14 -13
86 71 117 136 61 127 85 133 77 21 -5 -64 -4 -80 7 -80 16 0 67 55 113 123 54
79 72 56 43 -55 -10 -40 -17 -74 -16 -76 2 -2 50 49 106 113 57 63 105 114
106 112 2 -2 -3 -25 -11 -52 -20 -63 -19 -94 2 -102 17 -7 34 10 105 106 18
24 44 51 57 60 24 15 24 15 18 -14 -20 -86 -20 -95 -4 -95 9 0 29 16 44 36 64
84 82 100 93 84 5 -8 10 -32 10 -53 0 -52 26 -47 58 13 19 36 23 55 18 93 -9
84 -126 303 -171 321 -21 8 -36 -26 -44 -103 l-7 -66 -33 67 c-48 100 -90 104
-101 10 l-5 -47 -23 47 c-28 57 -74 98 -109 98 l-26 0 5 -105z"/>
<path d="M3009 4974 c-10 -13 -10 -21 0 -47 24 -60 25 -67 5 -67 -19 0 -32 8
-112 64 -71 49 -102 13 -59 -68 15 -27 25 -51 23 -54 -3 -2 -34 22 -71 53 -37
31 -74 55 -83 53 -23 -4 -27 -53 -8 -83 40 -60 3 -73 -64 -22 -66 50 -91 61
-109 50 -9 -6 -17 -17 -19 -26 -3 -14 5 -34 46 -122 3 -5 -18 7 -45 27 -154
110 -204 83 -138 -76 9 -21 15 -40 13 -42 -2 -2 -21 8 -42 22 -64 43 -143 76
-178 72 -27 -2 -34 -8 -36 -29 -2 -15 6 -42 17 -60 28 -46 26 -54 -7 -30 -42
30 -113 44 -177 36 -30 -3 -55 -10 -55 -14 0 -3 25 -31 55 -61 30 -29 52 -57
49 -61 -3 -5 -35 2 -72 15 -100 35 -118 38 -136 21 -17 -17 -12 -38 23 -96 12
-19 21 -37 21 -40 0 -3 -23 6 -51 19 -31 15 -75 28 -108 30 -91 7 -95 -17 -26
-123 20 -29 20 -29 0 -21 -56 24 -154 48 -170 43 -23 -9 -14 -46 26 -104 17
-23 28 -43 25 -43 -3 0 -28 9 -56 20 -57 23 -128 26 -152 8 -9 -7 -18 -26 -20
-43 -3 -29 -5 -30 -62 -36 -39 -5 -64 -13 -72 -24 -7 -9 -38 -22 -71 -29 -53
-10 -58 -13 -61 -39 -4 -30 -14 -36 -89 -56 -31 -9 -43 -17 -43 -31 0 -32 -11
-50 -41 -66 -20 -10 -29 -22 -29 -39 0 -17 -9 -29 -30 -40 -21 -11 -32 -27
-40 -58 -6 -23 -40 -103 -75 -178 -90 -192 -134 -329 -106 -329 9 0 35 37 126
180 64 100 150 203 205 246 34 27 50 33 71 29 17 -4 37 0 52 10 24 15 57 12
57 -6 0 -5 8 -9 19 -9 19 0 83 63 117 116 l19 28 5 -54 c4 -47 8 -55 25 -55
18 0 43 30 91 111 15 25 23 16 32 -36 4 -24 12 -45 18 -47 22 -7 82 61 93 107
26 103 50 116 65 37 6 -30 15 -47 24 -47 24 0 80 67 109 130 15 33 30 60 33
60 4 0 7 -21 9 -47 1 -27 8 -54 16 -62 20 -20 58 25 91 110 15 39 31 72 35 74
3 3 9 -22 13 -54 4 -32 9 -61 12 -64 3 -3 17 -1 30 5 26 12 59 74 69 130 4 20
13 45 20 55 13 17 14 16 24 -10 6 -16 11 -42 11 -58 0 -46 27 -49 65 -7 26 27
34 47 40 94 8 63 19 94 36 94 7 0 8 -25 4 -75 -7 -70 -6 -75 12 -75 40 0 94
81 123 185 l17 60 7 -40 c15 -90 17 -95 37 -95 13 0 28 17 47 51 40 75 65 112
80 117 17 5 15 -24 -5 -76 -14 -39 -15 -45 -1 -58 27 -27 56 3 109 114 27 56
52 102 55 102 3 0 4 -36 3 -80 -2 -44 0 -83 4 -86 14 -14 51 34 89 116 44 96
59 95 46 -2 -4 -34 -6 -63 -4 -65 2 -3 13 1 25 8 23 15 44 55 63 119 18 61 44
66 53 10 13 -75 51 -63 83 25 21 59 30 75 43 75 6 0 9 -21 8 -50 -2 -27 0 -52
3 -55 13 -13 57 58 64 101 16 109 -23 228 -102 311 -43 46 -64 52 -85 27z"/>
<path d="M5303 4938 c-21 -18 -64 -57 -96 -86 -32 -30 -61 -52 -64 -49 -3 3 2
27 11 53 21 62 21 104 0 104 -18 0 -107 -88 -144 -143 -30 -44 -43 -48 -29 -8
6 16 9 49 7 72 -5 70 -31 60 -107 -41 l-64 -85 6 65 c12 117 -18 119 -110 10
-34 -41 -70 -77 -79 -79 -15 -3 -16 5 -11 72 4 59 2 79 -9 88 -19 16 -75 -43
-115 -122 -33 -66 -65 -103 -79 -94 -6 4 -10 42 -10 86 l0 80 -27 -3 c-23 -2
-37 -18 -76 -83 -26 -44 -57 -89 -68 -100 l-21 -20 4 58 c9 108 -31 95 -111
-38 -27 -44 -57 -82 -66 -84 -17 -3 -17 4 -11 78 5 69 4 82 -9 87 -33 13 -96
-74 -125 -173 -20 -67 -28 -58 -54 60 -16 69 -86 23 -86 -57 0 -54 -18 -106
-35 -106 -11 0 -14 17 -12 73 2 66 0 72 -18 72 -26 0 -79 -79 -101 -148 -8
-29 -18 -86 -21 -127 -5 -71 -3 -77 26 -121 38 -57 124 -139 146 -139 25 0 29
28 12 81 -14 44 -9 66 8 38 4 -6 25 -24 47 -40 78 -56 116 -28 79 57 -12 26
-21 48 -21 50 0 11 32 0 118 -41 52 -25 96 -45 98 -45 1 0 -10 32 -27 71 -16
40 -29 76 -29 81 0 5 29 -16 64 -46 70 -59 102 -74 120 -56 8 8 3 26 -22 71
-62 112 -21 113 84 2 89 -94 117 -74 69 52 -14 37 -19 63 -13 58 7 -5 33 -25
58 -45 55 -43 102 -68 130 -68 27 0 25 18 -6 74 -18 32 -23 51 -16 58 14 14
44 -4 118 -73 94 -87 126 -79 94 24 -10 31 -15 57 -11 56 3 0 29 -28 57 -62
40 -49 56 -62 79 -62 39 0 53 26 36 67 -45 111 -18 120 72 24 97 -102 135
-101 104 4 -8 27 -11 50 -7 50 4 0 30 -20 56 -44 111 -98 173 -94 130 9 -17
39 -6 47 16 13 28 -43 100 -108 119 -108 29 0 33 24 19 101 -7 38 -11 72 -8
75 3 3 26 -21 51 -53 26 -32 60 -67 78 -77 28 -16 33 -17 46 -3 14 14 12 21
-13 71 -20 41 -25 59 -17 67 15 15 45 -2 111 -63 86 -77 145 -62 92 24 -26 43
-26 68 0 68 11 0 23 -8 26 -17 15 -46 32 -69 73 -95 25 -15 51 -28 58 -28 26
0 26 33 -2 87 -24 48 -26 57 -13 69 18 19 29 7 73 -75 33 -62 60 -74 90 -41
15 17 17 26 8 53 -22 73 19 77 78 7 23 -27 46 -50 51 -50 5 0 16 17 25 38 l16
37 14 -32 c16 -39 19 -40 51 -10 13 12 38 23 55 24 18 1 55 6 82 11 53 11 146
3 285 -24 84 -16 130 -18 130 -6 0 13 -41 48 -75 64 -16 9 -72 27 -123 42
-107 30 -184 67 -206 97 -12 18 -21 21 -55 15 -36 -5 -42 -3 -57 19 -14 21
-24 25 -63 25 -26 0 -50 3 -54 6 -3 3 3 20 14 37 10 18 19 37 19 43 0 37 -76
14 -155 -45 -30 -22 -56 -41 -58 -41 -2 0 12 30 30 68 33 63 33 67 14 70 -26
4 -69 -19 -105 -57 -46 -48 -60 -42 -51 24 6 54 6 55 -18 55 -13 0 -59 -22
-101 -50 -42 -27 -76 -48 -76 -46 0 2 16 30 35 62 57 94 21 99 -110 13 -108
-70 -114 -72 -82 -17 29 49 35 88 15 88 -24 0 -78 -40 -158 -116 -44 -42 -80
-75 -80 -73 0 2 9 33 20 67 21 68 26 122 10 122 -5 0 -26 -14 -47 -32z"/>
<path d="M3130 4375 c0 -8 5 -26 12 -40 10 -21 9 -28 -2 -35 -18 -11 -39 -2
-83 37 -20 18 -43 33 -51 33 -27 0 -39 -28 -32 -80 4 -28 5 -50 2 -50 -2 0
-28 16 -57 35 -74 50 -84 45 -82 -38 l1 -67 -30 25 c-92 78 -162 62 -137 -30
6 -20 8 -39 5 -43 -3 -3 -36 6 -73 20 -91 35 -109 38 -128 24 -15 -11 -15 -15
0 -54 10 -24 15 -46 11 -49 -3 -4 -39 4 -79 16 -79 25 -130 25 -135 0 -1 -9
13 -39 33 -68 19 -29 35 -54 35 -56 0 -1 -26 8 -57 21 -70 29 -123 30 -154 5
-21 -17 -22 -21 -9 -50 7 -17 11 -34 9 -36 -3 -2 -35 1 -72 8 -60 10 -69 9
-85 -6 -16 -17 -16 -20 6 -58 13 -23 22 -43 19 -45 -2 -2 -34 5 -71 16 -81 25
-149 24 -154 -3 -2 -10 8 -37 23 -59 l27 -41 -23 7 c-13 4 -54 10 -91 13 -80
7 -92 -6 -59 -62 24 -41 27 -71 9 -78 -7 -3 -54 -3 -103 0 -74 5 -93 3 -103
-10 -11 -13 -9 -21 17 -48 48 -49 42 -56 -49 -61 -65 -2 -83 -7 -101 -24 l-21
-22 21 -21 c40 -40 21 -65 -41 -55 -24 4 -40 0 -61 -16 -30 -24 -34 -42 -12
-60 23 -19 19 -27 -32 -56 -27 -15 -56 -34 -66 -42 -16 -15 -16 -17 5 -40 23
-24 23 -25 3 -36 -34 -19 -73 -66 -80 -94 -9 -43 -63 -122 -165 -242 -116
-137 -180 -221 -180 -237 0 -30 35 -7 117 75 125 126 290 232 367 235 27 2 33
8 46 47 28 81 25 77 52 53 27 -26 53 -29 65 -10 4 6 10 35 13 62 l6 50 18 -42
c30 -72 61 -53 77 49 6 34 13 78 15 96 5 32 6 32 40 -38 24 -48 41 -70 54 -70
26 0 30 19 30 132 0 67 4 98 11 96 6 -2 25 -30 42 -63 50 -94 80 -83 93 31 8
73 21 107 35 99 6 -5 8 -26 3 -61 -5 -45 -4 -55 10 -60 27 -10 65 34 82 96 29
105 36 120 50 120 10 0 14 -15 14 -57 0 -71 9 -89 38 -74 26 14 60 70 88 145
19 51 23 56 24 31 1 -82 36 -107 81 -58 19 22 28 46 34 89 12 97 42 129 36 39
-2 -34 2 -48 19 -65 22 -22 23 -22 41 -4 10 11 29 61 43 113 27 102 29 106 46
96 7 -4 8 -24 4 -57 -5 -37 -3 -52 7 -58 33 -21 67 29 106 154 10 32 23 59 28
60 6 0 14 -32 19 -72 8 -76 22 -96 51 -72 7 6 30 52 51 101 20 49 44 95 52
101 13 12 15 6 10 -43 -11 -102 24 -105 77 -7 17 31 34 58 39 59 5 2 15 -12
21 -31 19 -56 46 -47 70 23 23 63 50 101 65 92 6 -3 10 -26 10 -50 0 -24 4
-46 9 -49 15 -9 49 37 71 97 27 72 46 70 42 -3 -3 -58 9 -76 40 -59 21 11 43
52 68 123 l18 51 11 -30 c17 -46 27 -60 45 -63 40 -8 80 169 56 244 -14 41
-91 130 -154 175 -43 32 -66 37 -66 14z"/>
<path d="M5056 4170 c-49 -44 -92 -80 -97 -80 -5 0 -6 27 -2 60 6 58 5 60 -18
60 -17 0 -45 -22 -96 -75 -39 -41 -76 -75 -82 -75 -17 0 -13 32 11 89 24 58
16 78 -26 67 -24 -6 -51 -34 -118 -125 -18 -25 -38 -43 -43 -40 -6 2 -11 24
-11 49 -3 83 -3 82 -26 78 -13 -2 -48 -34 -85 -78 -85 -102 -93 -102 -93 -1 0
58 -4 81 -12 81 -18 0 -67 -48 -124 -120 -50 -64 -61 -70 -44 -26 15 42 13
106 -5 112 -26 10 -58 -20 -100 -96 -22 -40 -44 -71 -50 -69 -5 2 -9 28 -7 57
3 46 1 52 -16 52 -25 0 -80 -38 -105 -72 -11 -15 -23 -44 -27 -65 l-6 -38 -25
50 c-27 57 -54 69 -68 32 -5 -14 -14 -75 -19 -136 -7 -89 -13 -118 -30 -141
-12 -16 -22 -40 -22 -53 0 -57 112 -217 152 -217 30 0 40 27 33 82 l-7 53 37
-43 c49 -56 73 -69 93 -48 13 13 14 22 2 73 -7 32 -15 64 -18 72 -3 8 25 -9
62 -37 104 -80 142 -65 86 33 -54 94 -23 108 61 28 30 -29 53 -44 65 -41 17 3
19 12 17 77 l-2 73 21 -27 c55 -71 158 -112 158 -65 0 12 -7 34 -15 50 -9 17
-13 30 -10 30 3 0 33 -20 66 -45 112 -82 138 -74 122 37 -5 40 -9 74 -9 75 1
1 24 -28 52 -65 51 -67 96 -103 111 -88 4 4 10 35 13 69 l5 62 42 -62 c68 -98
113 -96 113 6 l1 56 65 -72 c47 -52 73 -73 90 -73 21 0 24 5 24 36 l0 36 46
-41 c32 -28 56 -41 75 -41 l29 0 0 88 0 87 26 -55 c51 -109 99 -147 125 -99
10 20 9 39 -7 124 -6 27 3 21 84 -57 49 -49 94 -88 101 -88 16 0 24 44 18 103
l-4 51 19 -24 c10 -14 35 -44 54 -67 59 -72 105 -49 88 43 -3 19 -2 34 3 34 5
0 31 -25 57 -56 35 -40 54 -54 70 -52 18 3 21 10 24 61 2 31 6 57 11 57 4 0
32 -18 61 -40 88 -66 124 -46 85 47 -8 19 -15 37 -15 39 0 2 21 -8 46 -21 57
-30 63 -30 111 -5 98 51 441 132 539 128 74 -4 83 15 20 43 -65 28 -163 34
-336 19 -136 -12 -152 -12 -168 3 -13 12 -28 15 -56 10 -30 -5 -42 -2 -52 11
-10 14 -17 15 -33 7 -31 -17 -47 -13 -59 14 -12 27 -27 26 -74 -7 -40 -28 -52
-24 -45 18 7 40 0 64 -17 64 -7 0 -44 -20 -82 -44 -38 -25 -70 -43 -72 -42 -1
2 5 22 14 45 33 84 3 88 -108 15 -37 -24 -70 -44 -73 -44 -2 0 7 21 21 47 21
40 22 49 11 61 -18 17 -61 1 -134 -52 -28 -20 -54 -33 -57 -28 -3 5 -1 37 5
72 5 34 8 64 6 67 -2 2 -47 -37 -100 -87 -52 -49 -97 -90 -99 -90 -3 0 3 42
13 93 10 50 18 96 18 102 1 5 -51 -42 -114 -105 -63 -63 -115 -110 -115 -105
0 6 11 52 25 104 14 52 24 98 23 102 -2 5 -43 -28 -92 -71z"/>
<path d="M3218 3764 c-1 -5 -2 -25 -2 -44 -1 -48 -27 -50 -76 -6 -61 55 -99
41 -66 -23 34 -65 8 -84 -56 -41 -48 33 -95 39 -105 14 -3 -9 4 -36 17 -59 13
-23 20 -47 16 -54 -10 -16 -58 -14 -122 5 -115 33 -146 0 -68 -72 l49 -44 -57
20 c-73 26 -139 26 -161 2 -10 -10 -17 -22 -17 -27 0 -4 21 -28 48 -53 l47
-44 -34 6 c-82 15 -166 17 -190 4 -36 -19 -36 -35 1 -70 l33 -31 -45 7 c-111
17 -157 18 -165 6 -4 -7 6 -38 23 -71 33 -65 32 -66 -43 -43 -58 18 -110 11
-125 -16 -14 -26 -14 -25 22 -59 28 -26 30 -31 14 -37 -9 -4 -53 3 -96 15
-112 30 -138 15 -78 -46 41 -43 30 -58 -33 -44 -67 16 -119 14 -126 -5 -3 -9
3 -32 13 -52 10 -21 20 -41 23 -46 2 -5 -20 -6 -50 -2 -72 8 -105 -8 -102 -51
3 -31 2 -31 -36 -26 -33 5 -41 2 -57 -21 -50 -71 -50 -71 -104 -71 -51 0 -52
-1 -65 -38 -18 -52 -36 -69 -178 -173 -222 -161 -302 -232 -283 -252 9 -9 92
34 161 83 99 70 98 69 262 75 150 5 152 5 182 34 33 32 47 29 56 -13 3 -16 12
-34 19 -40 17 -14 35 6 75 87 17 34 34 62 36 62 3 0 14 -20 25 -45 35 -81 63
-69 96 39 18 59 47 106 66 106 5 0 9 -20 8 -47 -4 -71 -1 -83 14 -83 23 0 64
57 82 115 17 52 34 65 34 24 0 -29 28 -35 54 -10 12 11 37 52 56 91 19 38 37
70 41 70 5 0 9 -21 11 -47 2 -35 8 -49 19 -51 28 -5 76 54 94 116 28 96 55
107 55 22 0 -64 21 -73 66 -25 21 22 41 61 55 105 13 39 26 70 29 70 4 0 13
-18 20 -40 19 -58 35 -68 53 -33 8 16 23 54 32 85 9 32 20 60 24 63 5 2 14 -9
21 -25 14 -34 44 -40 59 -11 6 10 19 49 29 87 l19 69 21 -48 c11 -26 27 -47
35 -47 15 0 57 85 57 114 0 28 19 17 34 -19 27 -64 65 -36 85 63 22 104 70
158 57 63 -14 -107 61 -72 102 47 21 61 19 62 37 -23 6 -28 26 -33 45 -10 7 8
23 40 36 72 l24 58 -2 -60 c-3 -71 5 -89 32 -75 66 35 115 243 75 319 -20 39
-88 96 -150 126 -59 28 -104 41 -107 29z"/>
<path d="M4615 3538 c-20 -17 -48 -54 -62 -82 -14 -28 -30 -57 -36 -64 -15
-19 -27 4 -27 56 0 49 -14 82 -34 82 -18 0 -58 -48 -112 -135 l-44 -70 2 77
c2 63 -1 81 -16 95 -17 17 -18 17 -40 -10 -12 -15 -37 -69 -56 -120 l-35 -92
-5 77 c-5 79 -17 105 -44 95 -19 -8 -49 -68 -65 -132 -21 -81 -22 -83 -36 -37
-18 59 -32 74 -57 61 -25 -14 -75 -119 -90 -191 -11 -52 -10 -58 19 -121 35
-73 106 -157 134 -157 22 0 27 22 18 75 -4 22 -5 42 -2 45 2 3 38 -13 80 -35
41 -22 78 -41 83 -43 5 -2 -4 30 -20 70 -16 40 -27 74 -26 76 2 1 42 -27 90
-63 48 -36 95 -65 106 -65 28 0 41 31 30 71 -6 19 -10 36 -10 38 0 2 23 -17
50 -43 28 -26 56 -46 63 -43 8 3 11 25 10 67 -3 70 -12 70 77 3 29 -22 54 -33
77 -33 30 0 33 3 33 31 0 17 -5 39 -10 50 -17 31 -5 23 49 -33 49 -51 52 -52
66 -34 8 11 15 31 16 45 0 14 4 35 8 46 7 17 13 11 39 -41 17 -34 38 -64 46
-67 18 -7 42 19 51 56 4 15 11 29 15 32 5 3 30 -17 56 -45 69 -73 110 -67 97
14 -4 27 -2 37 11 42 21 8 43 -10 67 -58 12 -24 29 -40 46 -44 38 -10 54 16
47 75 l-6 46 57 -62 c78 -86 126 -85 109 3 -8 45 9 68 40 52 11 -6 37 -28 57
-49 39 -42 68 -49 94 -22 12 12 15 25 10 52 l-6 36 48 -47 c27 -27 56 -48 65
-48 24 0 38 31 38 81 l0 42 23 -20 c29 -27 81 -53 105 -53 15 0 21 9 26 40 7
45 19 49 56 20 36 -28 59 -25 71 10 14 38 25 38 66 -2 l32 -31 11 29 c6 16 13
35 15 42 6 17 19 15 40 -8 23 -25 29 -25 55 2 15 17 34 23 68 25 26 0 90 14
142 29 97 29 206 37 280 22 20 -5 41 -3 50 2 22 15 -19 46 -88 66 -46 14 -82
16 -194 10 l-138 -7 -24 26 c-25 27 -55 32 -74 13 -17 -17 -24 -5 -13 25 5 14
7 28 4 31 -12 12 -49 5 -73 -14 -37 -29 -50 -25 -50 15 0 43 -12 49 -71 36
-51 -12 -58 -8 -35 18 12 13 14 21 6 26 -18 11 -58 -3 -113 -40 -29 -19 -55
-35 -59 -35 -4 0 -1 18 8 41 32 79 -19 79 -110 -1 -31 -27 -62 -50 -67 -50
-20 0 -20 31 0 63 26 43 28 77 3 77 -24 0 -57 -23 -119 -84 -54 -51 -65 -48
-42 10 14 39 4 74 -22 74 -34 0 -55 -17 -105 -81 -33 -43 -50 -57 -57 -50 -8
8 -6 21 6 46 17 36 22 77 11 88 -11 10 -44 -12 -123 -80 -40 -35 -76 -62 -78
-59 -3 3 0 19 6 37 15 44 14 74 -4 89 -21 17 -63 -16 -126 -100 -28 -39 -55
-70 -59 -70 -4 0 -4 19 1 43 14 70 11 147 -5 147 -16 0 -116 -105 -143 -150
-26 -44 -35 -37 -26 23 11 79 10 130 -5 134 -7 3 -46 -27 -86 -67 -41 -39 -76
-68 -79 -63 -3 4 -1 32 4 62 13 82 -6 93 -66 39z"/>
<path d="M3389 3187 c-7 -16 -6 -42 4 -89 l13 -67 -55 59 c-59 62 -79 71 -105
44 -22 -22 -20 -32 14 -71 59 -67 29 -85 -46 -27 -32 23 -55 34 -73 32 -37 -4
-38 -32 -2 -89 16 -27 28 -49 25 -49 -2 0 -45 20 -94 45 -50 25 -90 41 -90 37
0 -5 14 -48 30 -97 17 -49 30 -90 30 -92 0 -2 -30 12 -67 30 -84 42 -120 52
-139 36 -18 -15 -11 -40 29 -98 l30 -44 -29 7 c-16 4 -57 10 -91 13 -58 5 -62
4 -78 -21 -17 -25 -17 -29 -1 -68 8 -23 14 -44 11 -46 -2 -3 -33 4 -67 15
-101 33 -167 10 -119 -41 45 -48 29 -53 -110 -30 -53 9 -68 -14 -40 -61 12
-20 21 -41 21 -47 0 -7 -30 -8 -92 -3 -104 7 -148 -3 -148 -34 0 -10 11 -26
25 -35 14 -9 25 -25 25 -36 0 -18 -7 -20 -74 -20 -94 0 -109 -13 -78 -69 26
-46 22 -51 -60 -75 -62 -18 -72 -34 -35 -59 22 -15 22 -15 2 -31 -11 -9 -42
-28 -68 -42 -60 -31 -67 -48 -33 -75 l27 -21 -31 -20 c-27 -16 -31 -23 -25
-47 5 -24 1 -32 -24 -51 -27 -18 -31 -28 -31 -65 0 -66 -57 -202 -194 -460
-18 -33 -21 -55 -8 -55 15 0 112 110 220 246 56 72 132 160 170 196 37 35 76
77 87 92 19 26 23 28 43 15 34 -21 47 0 47 81 l0 68 20 -41 c11 -23 27 -43 37
-45 20 -4 29 22 38 108 6 63 7 64 18 35 20 -49 28 -60 48 -60 24 0 42 51 44
125 l1 55 24 -52 c14 -31 30 -53 40 -53 25 0 53 59 67 137 12 74 28 98 28 43
0 -32 19 -80 31 -80 20 0 40 55 52 141 l13 94 29 -78 c16 -42 32 -77 35 -77 4
0 14 33 24 73 19 83 53 163 64 153 4 -5 7 -33 7 -64 0 -71 17 -75 59 -14 22
31 31 55 31 87 1 24 8 51 16 61 13 16 14 12 19 -36 3 -29 10 -55 17 -57 18 -6
50 53 70 129 10 38 20 68 24 68 4 0 10 -15 13 -33 3 -19 13 -42 21 -53 15 -19
15 -19 34 4 11 12 24 45 30 72 27 124 69 161 56 49 -8 -64 4 -93 32 -82 17 7
73 118 73 146 0 9 5 17 10 17 6 0 10 -12 10 -27 0 -38 10 -73 21 -73 5 0 28
37 51 83 l42 82 11 -55 c8 -39 16 -54 26 -52 22 4 59 51 59 73 0 26 18 59 31
59 5 0 17 -17 25 -37 19 -44 28 -34 45 45 26 125 14 176 -63 279 -60 79 -112
107 -129 70z"/>
<path d="M4514 2861 c-21 -16 -55 -45 -74 -66 -62 -66 -68 -64 -67 12 2 57 -1
68 -16 71 -24 5 -94 -66 -102 -104 -18 -81 -40 -92 -50 -26 -4 20 -11 48 -16
61 -10 23 -10 23 -31 5 -11 -11 -31 -41 -43 -68 l-22 -49 -22 37 c-48 76 -91
25 -91 -108 0 -41 -5 -86 -11 -100 -15 -33 9 -71 122 -190 90 -95 99 -96 99
-15 0 26 3 60 6 77 l6 30 47 -61 c27 -34 55 -63 64 -65 19 -4 37 34 37 78 0
44 16 44 52 -1 18 -23 45 -47 59 -55 39 -19 52 0 47 71 -1 30 0 55 4 55 9 0
53 -54 75 -90 20 -34 52 -49 64 -29 4 7 11 35 14 61 4 26 10 48 14 48 4 0 18
-22 31 -50 31 -65 54 -87 75 -70 8 7 15 25 15 40 0 33 9 60 20 60 4 0 32 -31
61 -70 59 -77 66 -76 69 10 2 25 5 58 9 74 6 27 8 25 40 -43 39 -79 81 -127
105 -118 14 5 15 18 10 77 -7 67 -6 70 15 70 13 0 41 -20 71 -51 42 -43 53
-50 82 -47 27 2 34 8 42 36 5 17 12 32 16 32 3 0 19 -13 35 -30 44 -46 105
-37 105 15 0 37 12 37 46 0 48 -53 114 -46 114 12 0 32 8 29 57 -19 55 -54 77
-46 81 31 2 28 6 51 9 51 3 0 25 -20 48 -45 49 -53 68 -52 86 3 18 56 26 59
61 23 42 -43 74 -40 70 7 -2 31 -1 32 25 25 46 -13 88 -8 129 15 104 59 210
104 324 137 69 20 129 40 134 45 18 18 -7 32 -48 26 -22 -3 -115 -10 -206 -15
-91 -6 -184 -13 -207 -16 -39 -6 -44 -4 -55 19 -14 33 -35 33 -78 1 -19 -14
-36 -25 -38 -25 -2 0 -1 32 3 72 l7 72 -27 -18 c-16 -10 -43 -27 -62 -38 l-33
-20 6 30 c3 17 1 32 -5 36 -11 7 -76 -23 -123 -56 -32 -22 -35 -17 -12 22 41
69 -23 81 -112 21 -33 -22 -61 -36 -62 -30 -2 5 3 29 11 54 9 25 12 47 8 49
-16 10 -96 -37 -152 -91 l-60 -57 3 73 c2 49 -1 75 -8 78 -7 2 -39 -22 -73
-53 -34 -31 -61 -54 -61 -51 0 3 12 28 26 55 45 88 18 93 -103 22 -48 -28 -90
-49 -95 -48 -4 2 3 20 17 40 59 87 18 89 -105 7 -50 -34 -93 -60 -96 -57 -2 3
0 17 6 32 5 15 10 41 10 57 0 57 -46 48 -129 -27 -47 -42 -53 -45 -47 -24 17
53 19 90 5 90 -22 0 -69 -34 -141 -102 -38 -36 -68 -61 -68 -57 0 3 7 26 15
49 8 23 15 58 15 76 0 43 -22 45 -76 5z"/>
<path d="M3435 2550 c-3 -5 3 -27 14 -48 15 -29 17 -42 8 -51 -16 -16 -23 -14
-59 17 -44 38 -62 43 -87 26 -25 -18 -27 -44 -5 -85 31 -61 -1 -75 -73 -33
-49 28 -99 29 -116 2 -9 -13 -4 -23 23 -48 30 -28 32 -32 18 -47 -15 -14 -21
-14 -61 0 -38 13 -48 13 -64 2 -16 -12 -17 -17 -4 -47 26 -64 26 -78 0 -78
-13 0 -48 11 -77 25 -61 28 -94 31 -111 11 -15 -18 -5 -40 33 -75 29 -28 33
-53 11 -71 -11 -9 -38 -11 -96 -7 -144 11 -156 -23 -39 -116 l35 -28 -140 7
-140 7 63 -59 c34 -33 62 -65 62 -72 0 -15 -26 -20 -117 -24 -53 -3 -77 -9
-92 -22 -29 -27 -26 -42 16 -81 27 -25 33 -35 23 -39 -8 -3 -40 -12 -71 -21
-31 -9 -64 -24 -74 -35 -17 -18 -17 -21 -1 -45 15 -22 21 -24 56 -19 33 5 40
4 40 -9 0 -16 -13 -21 -127 -47 -65 -15 -105 -44 -101 -74 2 -17 11 -22 43
-24 83 -7 71 -36 -20 -53 -86 -15 -95 -18 -95 -38 0 -9 16 -32 35 -51 19 -19
35 -37 35 -41 0 -3 -20 -12 -44 -19 -25 -7 -52 -21 -62 -31 -15 -17 -14 -19
10 -44 14 -14 26 -29 26 -32 0 -3 -16 -23 -36 -45 -32 -36 -34 -41 -21 -56 13
-15 13 -20 2 -36 -8 -11 -12 -30 -8 -46 7 -37 -15 -101 -97 -279 -65 -141 -94
-220 -85 -229 9 -9 39 24 139 153 129 165 224 265 253 265 26 0 43 27 43 69 0
29 2 31 36 31 l37 0 -7 61 c-7 61 -7 62 16 54 13 -4 39 -8 58 -9 37 -1 41 9
25 61 -7 21 -5 22 23 17 25 -5 36 -1 57 20 21 21 24 30 15 45 -13 25 -13 81 0
81 6 0 15 -11 20 -25 11 -29 22 -31 40 -10 9 11 11 39 7 95 -3 44 -3 80 0 80
3 0 32 -23 64 -51 l59 -51 0 105 c0 145 13 172 47 100 37 -77 80 -37 70 64 -9
89 17 127 43 63 33 -80 74 -57 72 42 -3 120 23 156 54 78 9 -22 23 -40 31 -40
19 0 39 52 48 122 4 32 11 55 16 52 5 -3 9 -13 9 -23 0 -11 8 -29 19 -42 17
-21 21 -22 46 -11 l28 13 -8 77 c-10 99 -9 122 3 134 7 7 17 -3 32 -31 16 -33
26 -42 43 -39 23 3 26 12 44 122 11 66 33 74 33 12 0 -83 37 -70 71 25 12 33
25 59 29 59 4 0 15 -9 25 -20 31 -34 52 -25 72 30 10 28 20 50 23 50 3 0 11
-13 17 -30 21 -56 54 -32 87 65 20 60 31 145 22 178 -6 27 -118 116 -194 154
-48 24 -87 30 -97 13z"/>
<path d="M4351 2155 c-37 -36 -76 -65 -85 -65 -10 0 -27 11 -38 25 -39 50 -65
28 -88 -75 -22 -102 -3 -210 46 -261 52 -55 80 -32 93 74 l7 62 29 -60 c37
-75 62 -80 85 -18 22 59 27 61 40 12 20 -84 45 -134 65 -134 13 0 23 13 34 45
l15 45 7 -55 c10 -78 17 -92 48 -88 20 2 31 14 47 47 l21 44 7 -69 c4 -38 10
-75 15 -83 15 -23 47 -2 75 50 34 62 52 59 48 -7 -2 -35 3 -58 18 -81 30 -49
55 -44 77 16 19 54 33 58 33 9 0 -37 28 -86 53 -94 24 -8 43 11 55 56 l9 35
12 -28 c6 -16 11 -41 11 -56 0 -66 49 -77 72 -15 6 19 16 34 20 34 5 0 19 -25
33 -56 27 -61 31 -61 78 -7 16 18 32 33 37 33 4 0 15 -20 24 -45 10 -25 20
-45 24 -45 3 0 16 12 28 27 l21 26 85 -27 c92 -29 129 -50 251 -145 75 -58
107 -73 107 -51 0 42 -145 236 -272 363 -54 55 -98 103 -98 107 0 18 -46 40
-82 40 -42 0 -46 5 -22 31 9 10 13 23 9 28 -8 13 -69 14 -113 2 -38 -11 -41
-3 -7 29 49 46 31 63 -66 61 -38 0 -69 2 -69 5 0 3 7 19 16 35 8 17 13 37 10
45 -8 22 -94 18 -135 -7 -31 -19 -33 -19 -26 -2 4 10 13 35 19 56 19 68 -23
96 -85 58 -19 -12 -42 -21 -51 -21 -22 0 -23 28 -2 51 9 10 13 23 9 28 -9 16
-87 13 -130 -4 -48 -21 -69 -13 -105 41 -17 24 -36 44 -42 44 -6 0 -35 -22
-64 -50 -29 -27 -59 -50 -67 -50 -8 0 -24 23 -36 50 -12 28 -26 50 -32 50 -6
0 -41 -29 -78 -65z"/>
<path d="M3673 1938 c-4 -7 -10 -42 -14 -76 -4 -35 -13 -70 -21 -78 -13 -13
-20 -10 -56 27 -30 32 -48 42 -71 42 -49 0 -62 -26 -55 -104 8 -86 1 -91 -110
-87 -70 2 -88 0 -103 -14 -16 -17 -15 -20 27 -63 52 -53 48 -61 -38 -76 -76
-14 -126 -45 -130 -81 -3 -22 2 -28 33 -38 20 -7 34 -17 32 -23 -2 -7 -32 -29
-67 -49 -35 -20 -70 -44 -78 -52 -13 -13 -12 -16 14 -21 83 -19 83 -24 -14
-88 -40 -26 -72 -52 -72 -57 0 -5 9 -14 20 -20 29 -15 25 -37 -15 -81 -24 -27
-35 -49 -35 -70 0 -37 -15 -68 -47 -92 -29 -23 -29 -43 0 -69 14 -13 18 -21
10 -24 -39 -17 -63 -47 -63 -81 0 -20 -9 -50 -20 -68 -39 -63 -90 -352 -90
-510 0 -127 18 -111 131 119 48 97 89 166 117 195 30 32 42 54 42 75 0 28 1
28 18 13 26 -24 30 -22 37 21 15 89 11 85 60 77 43 -6 45 -5 45 18 0 14 3 38
6 55 6 28 10 31 47 34 34 2 43 8 50 28 9 24 4 39 -32 115 -2 5 8 2 22 -8 32
-21 63 -22 71 -2 3 8 -3 43 -14 78 -11 34 -20 65 -20 69 0 3 25 -2 54 -13 87
-30 106 -8 65 73 -20 39 -20 42 -4 54 13 10 24 10 56 -1 34 -12 41 -12 55 2
19 20 12 53 -22 105 -13 21 -24 40 -24 43 0 3 27 3 60 -1 l61 -7 -7 44 c-3 24
-7 49 -9 56 -5 17 7 24 21 12 8 -6 21 -8 30 -5 13 5 15 16 11 59 -3 28 -9 63
-13 76 -7 23 -6 23 47 20 l54 -4 3 54 3 54 30 -29 c27 -26 31 -27 45 -12 22
21 54 141 54 199 0 39 -6 54 -37 92 -43 52 -110 107 -129 107 -7 0 -16 -6 -21
-12z"/>
</g>
</svg>
