<?xml version="1.0" encoding="iso-8859-1"?>
<!-- Generator: Adobe Illustrator 19.0.0, SVG Export Plug-In . SVG Version: 6.00 Build 0)  -->
<svg version="1.1" id="Layer_1" xmlns="http://www.w3.org/2000/svg" xmlns:xlink="http://www.w3.org/1999/xlink" x="0px" y="0px"
	 viewBox="0 0 511.359 511.359" style="enable-background:new 0 0 511.359 511.359;" xml:space="preserve">
<g>
	<g>
		<g>
			<path d="M460.21,215.243c7.214,0,14.418-2.743,19.904-8.238l11.904-11.895c10.981-10.981,10.981-28.846,0-39.817L350.816,14.091
				c-10.962-10.971-28.837-10.981-39.817,0l-11.904,11.904c-10.798,10.798-10.917,28.233-0.457,39.25l-248.21,248.21h284.462
				l105.975-105.984C446.286,212.619,453.225,215.243,460.21,215.243z M312.032,38.923l11.895-11.904
				c1.929-1.92,4.453-2.88,6.976-2.88c2.533,0,5.065,0.96,6.985,2.88L479.09,168.222c3.849,3.849,3.849,10.112,0,13.961
				l-11.904,11.895c-3.858,3.849-10.121,3.84-13.961,0l-8.439-8.439L320.471,61.323l-8.439-8.439
				C308.183,49.035,308.183,42.772,312.032,38.923z M240.398,278.64c-1.783,1.783-4.123,2.679-6.464,2.679s-4.681-0.896-6.464-2.679
				l-38.793-38.793c-3.566-3.566-3.566-9.353,0-12.928c3.575-3.566,9.362-3.566,12.928,0l38.793,38.793
				C243.973,269.287,243.973,275.065,240.398,278.64z M246.862,233.383c-1.783,1.792-4.123,2.679-6.464,2.679
				s-4.681-0.887-6.464-2.679l-19.392-19.392c-3.575-3.575-3.575-9.362,0-12.928c3.575-3.575,9.353-3.575,12.928,0l19.392,19.392
				C250.437,224.03,250.437,229.817,246.862,233.383z M292.119,226.919c-1.792,1.792-4.123,2.679-6.464,2.679
				s-4.681-0.887-6.464-2.679l-38.784-38.784c-3.575-3.575-3.575-9.362,0-12.937c3.566-3.566,9.353-3.566,12.928,0l38.784,38.793
				C295.685,217.566,295.685,223.353,292.119,226.919z M298.583,181.671c-1.783,1.783-4.123,2.67-6.464,2.67
				s-4.672-0.887-6.464-2.67l-19.392-19.401c-3.575-3.575-3.575-9.362,0-12.928c3.566-3.575,9.353-3.575,12.928,0l19.392,19.392
				C302.158,172.308,302.158,178.096,298.583,181.671z M343.84,175.198c-1.783,1.783-4.123,2.679-6.464,2.679
				s-4.681-0.896-6.464-2.679l-38.793-38.793c-3.566-3.566-3.566-9.353,0-12.928c3.575-3.566,9.362-3.566,12.928,0l38.793,38.793
				C347.415,165.844,347.415,171.623,343.84,175.198z"/>
			<path d="M500.644,280.667l-19.392-19.392c-3.575-3.575-9.362-3.575-12.928,0l-19.392,19.392
				c-6.912,6.903-10.715,16.091-10.715,25.865c0,9.765,3.803,18.944,10.715,25.856c6.903,6.912,16.091,10.715,25.856,10.715
				s18.953-3.803,25.856-10.715c6.912-6.912,10.715-16.091,10.715-25.856C511.359,296.758,507.556,287.57,500.644,280.667z"/>
			<path d="M26.51,337.372c-35.346,35.346-35.346,92.855,0,128.201l12.974,12.974c17.966,17.966,41.554,26.953,65.152,26.953
				c23.589,0,47.195-8.987,65.152-26.953L316.603,331.74H32.142L26.51,337.372z"/>
		</g>
	</g>
</g>
</svg>
