<?xml version="1.0" encoding="iso-8859-1"?>
<!-- Generator: Adobe Illustrator 19.0.0, SVG Export Plug-In . SVG Version: 6.00 Build 0)  -->
<svg version="1.1" id="Layer_1" xmlns="http://www.w3.org/2000/svg" xmlns:xlink="http://www.w3.org/1999/xlink" x="0px" y="0px"
	 viewBox="0 0 512 512" style="enable-background:new 0 0 512 512;" xml:space="preserve">
<g>
	<g>
		<path d="M410.094,81.653l-29.653-44.478C364.923,13.896,338.958,0,310.983,0c-8.049,0-189.921,0-197.998,0
			c-9.22,0-16.696,7.475-16.696,16.696v66.783c0,9.22,7.475,16.696,16.696,16.696h50.087v16.696
			c0,29.591-17.744,44.22-28.501,54.978c-6.52,6.52-6.52,17.091,0,23.611c6.519,6.52,17.091,6.521,23.611,0
			c11.409-11.409,31.048-28.255,36.834-61.892h18.143c9.206,0,16.696,7.49,16.696,16.696v52.959
			c-19.433,6.891-33.391,25.449-33.391,47.214v33.391c0,9.206-7.49,16.696-16.696,16.696h-33.391
			c-27.618,0-50.087,22.469-50.087,50.087v111.304c0,27.618,22.469,50.087,50.087,50.087h200.348
			c27.618,0,50.087-22.469,50.087-50.087V250.435c0-27.618-22.469-50.087-50.087-50.087h-16.696v-50.087
			c0-9.206,7.49-16.696,16.696-16.696h35.587c12.338,0,23.619-6.757,29.44-17.635C417.572,105.052,416.938,91.917,410.094,81.653z
			 M163.072,66.783H129.68V33.391h33.391V66.783z M129.68,350.609c0-9.206,7.49-16.696,16.696-16.696h33.391
			c27.618,0,50.087-22.469,50.087-50.087v-33.391c0-9.206,7.49-16.696,16.696-16.696h16.696v133.565H129.68V350.609z
			 M363.418,461.913c0,9.206-7.49,16.696-16.696,16.696H146.375c-9.206,0-16.696-7.49-16.696-16.696v-61.217h133.565v27.826
			c0,9.22,7.475,16.696,16.696,16.696c9.22,0,16.696-7.475,16.696-16.696v-27.826h66.783V461.913z M263.246,200.348v-33.391h33.39
			v33.391H263.246z M346.723,233.739c9.206,0,16.696,7.49,16.696,16.696v116.87h-66.783V233.739h16.696H346.723z M346.723,100.174
			c-21.766,0-40.323,13.959-47.215,33.391h-39.135c-6.891-19.433-25.449-33.391-47.214-33.391h-16.696c0-7.312,0-58.286,0-66.783
			h114.52c16.785,0,32.364,8.338,41.675,22.304l29.645,44.478H346.723z"/>
	</g>
</g>
</svg>
