<?xml version="1.0" encoding="iso-8859-1"?>
<!-- Generator: Adobe Illustrator 19.0.0, SVG Export Plug-In . SVG Version: 6.00 Build 0)  -->
<svg version="1.1" id="Layer_1" xmlns="http://www.w3.org/2000/svg" xmlns:xlink="http://www.w3.org/1999/xlink" x="0px" y="0px"
	 viewBox="0 0 500 500" style="enable-background:new 0 0 500 500;" xml:space="preserve">
<g>
	<g>
		<path d="M480.384,140.499H19.62c-10.82,0-19.62,8.8-19.62,19.616v273.332c0,10.82,8.8,19.62,19.62,19.62h460.764
			c10.816,0,19.616-8.8,19.616-19.62V160.115C500,149.298,491.2,140.499,480.384,140.499z M492,433.447
			c0,6.408-5.208,11.62-11.616,11.62H19.62c-6.408,0-11.62-5.212-11.62-11.62V160.115c0-6.404,5.212-11.616,11.62-11.616h460.764
			c6.404,0,11.616,5.208,11.616,11.616V433.447z"/>
	</g>
</g>
<g>
	<g>
		<path d="M136.76,265.447H58.668c-2.208,0-4,1.792-4,4s1.792,4,4,4h78.092c2.212,0,4-1.792,4-4S138.968,265.447,136.76,265.447z"/>
	</g>
</g>
<g>
	<g>
		<path d="M265.616,265.447H168c-2.208,0-4,1.792-4,4s1.792,4,4,4h97.616c2.212,0,4-1.792,4-4S267.824,265.447,265.616,265.447z"/>
	</g>
</g>
<g>
	<g>
		<path d="M265.62,226.402H58.668c-2.208,0-4,1.792-4,4s1.792,4,4,4h206.948c2.212,0,4.004-1.792,4.004-4
			S267.828,226.402,265.62,226.402z"/>
	</g>
</g>
<g>
	<g>
		<path d="M265.62,331.829H117.24c-2.208,0-4,1.792-4,4s1.792,4,4,4h148.376c2.212,0,4.004-1.792,4.004-4
			S267.828,331.829,265.62,331.829z"/>
	</g>
</g>
<g>
	<g>
		<path d="M89.904,331.829h-31.24c-2.208,0-4,1.792-4,4s1.792,4,4,4h31.24c2.208,0,4-1.792,4-4S92.112,331.829,89.904,331.829z"/>
	</g>
</g>
<g>
	<g>
		<path d="M265.62,370.879H117.24c-2.208,0-4,1.792-4,4s1.792,4,4,4h148.376c2.212,0,4.004-1.792,4.004-4
			S267.828,370.879,265.62,370.879z"/>
	</g>
</g>
<g>
	<g>
		<path d="M89.904,370.879h-31.24c-2.208,0-4,1.792-4,4s1.792,4,4,4h31.24c2.208,0,4-1.792,4-4S92.112,370.879,89.904,370.879z"/>
	</g>
</g>
<g>
	<g>
		<path d="M251.9,156.155c-8.708,0-15.792,7.088-15.792,15.796c0,8.712,7.084,15.796,15.792,15.796
			c8.708,0,15.796-7.088,15.796-15.796C267.696,163.238,260.612,156.155,251.9,156.155z M251.9,179.746
			c-4.296,0-7.792-3.496-7.792-7.796c0-4.3,3.496-7.796,7.792-7.796c4.296,0,7.796,3.5,7.796,7.796
			C259.696,176.246,256.2,179.746,251.9,179.746z"/>
	</g>
</g>
<g>
	<g>
		<path d="M456.952,226.402c-2.208,0-4,1.792-4,4v140.476H324.284V234.402h101.428c2.208,0,4-1.792,4-4s-1.792-4-4-4H320.284
			c-2.208,0-4,1.792-4,4v144.476c0,2.208,1.792,4,4,4h136.668c2.212,0,4-1.792,4-4V230.402
			C460.952,228.194,459.16,226.402,456.952,226.402z"/>
	</g>
</g>
<g>
	<g>
		<path d="M254.732,169.123L133.712,48.107c-1.564-1.564-4.092-1.564-5.656,0c-1.564,1.564-1.564,4.092,0,5.656l121.02,121.016
			c0.78,0.78,1.804,1.172,2.828,1.172c1.02,0,2.044-0.388,2.828-1.172C256.296,173.215,256.296,170.686,254.732,169.123z"/>
	</g>
</g>
<g>
	<g>
		<path d="M375.512,48.107c-1.564-1.564-4.092-1.564-5.656,0l-93.412,93.408c-1.564,1.564-1.564,4.092,0,5.656
			c0.78,0.78,1.804,1.172,2.828,1.172c1.024,0,2.048-0.392,2.828-1.172l93.412-93.408C377.076,52.199,377.076,49.67,375.512,48.107z
			"/>
	</g>
</g>
</svg>
