<?xml version="1.0" encoding="UTF-8" standalone="no"?> <svg width="64" height="64" viewBox="0 0 64 64" fill="currentColor" xmlns="http://www.w3.org/2000/svg">
<path d="M46 26.12V5C45.9976 4.20508 45.6808 3.4434 45.1187 2.8813C44.5566 2.31921 43.7949 2.00237 43 2H7C5.67392 2 4.40215 2.52678 3.46447 3.46447C2.52678 4.40215 2 5.67392 2 7V57C2 58.3261 2.52678 59.5979 3.46447 60.5355C4.40215 61.4732 5.67392 62 7 62H44C48.5877 61.9812 52.9951 60.2114 56.3217 57.0521C59.6483 53.8928 61.6431 49.5826 61.8984 45.0019C62.1537 40.4213 60.6504 35.916 57.6955 32.4066C54.7406 28.8972 50.5572 26.6485 46 26.12V26.12ZM10 4H43C43.2652 4 43.5196 4.10536 43.7071 4.29289C43.8946 4.48043 44 4.73478 44 5V26C40.9344 25.9931 37.9182 26.7711 35.2383 28.2598C32.5585 29.7484 30.3043 31.8983 28.6904 34.5046C27.0764 37.1109 26.1565 40.087 26.0182 43.1494C25.8798 46.2119 26.5277 49.2588 27.9 52H10V4ZM4 7C4.00237 6.20508 4.31921 5.4434 4.8813 4.8813C5.4434 4.31921 6.20508 4.00237 7 4H8V52H7C5.91376 52.003 4.85902 52.3652 4 53.03V7ZM7 60C6.20435 60 5.44129 59.6839 4.87868 59.1213C4.31607 58.5587 4 57.7956 4 57C4 56.2044 4.31607 55.4413 4.87868 54.8787C5.44129 54.3161 6.20435 54 7 54H29.04C30.7484 56.5369 33.0703 58.6008 35.79 60H7ZM43 45.93C41.3348 45.6869 39.8126 44.8532 38.7111 43.581C37.6096 42.3087 37.0023 40.6828 37 39V38.07C38.6652 38.3131 40.1874 39.1468 41.2889 40.419C42.3904 41.6913 42.9977 43.3172 43 45V45.93ZM45 59.95V47.94C47.198 47.6907 49.2276 46.6421 50.7027 44.9937C52.1778 43.3453 52.9954 41.2121 53 39V37C53 36.7348 52.8946 36.4804 52.7071 36.2929C52.5196 36.1054 52.2652 36 52 36C50.3449 36.0022 48.7225 36.4607 47.3111 37.3252C45.8997 38.1897 44.754 39.4266 44 40.9C43.246 39.4266 42.1003 38.1897 40.6889 37.3252C39.2775 36.4607 37.6551 36.0022 36 36C35.7348 36 35.4804 36.1054 35.2929 36.2929C35.1054 36.4804 35 36.7348 35 37V39C35.0046 41.2121 35.8222 43.3453 37.2973 44.9937C38.7724 46.6421 40.802 47.6907 43 47.94V59.95C38.8513 59.6902 34.9665 57.826 32.1683 54.7521C29.37 51.6781 27.8779 47.6358 28.0078 43.481C28.1378 39.3262 29.8796 35.3851 32.8646 32.4921C35.8495 29.5991 39.8432 27.9813 44 27.9813C48.1568 27.9813 52.1505 29.5991 55.1354 32.4921C58.1204 35.3851 59.8622 39.3262 59.9922 43.481C60.1221 47.6358 58.63 51.6781 55.8317 54.7521C53.0335 57.826 49.1487 59.6902 45 59.95V59.95ZM45 45.93V45C45.0023 43.3172 45.6096 41.6913 46.7111 40.419C47.8126 39.1468 49.3348 38.3131 51 38.07V39C50.9977 40.6828 50.3904 42.3087 49.2889 43.581C48.1874 44.8532 46.6652 45.6869 45 45.93V45.93Z" fill="currentColor"/>
<path d="M15 24H39C39.7956 24 40.5587 23.6839 41.1213 23.1213C41.6839 22.5587 42 21.7956 42 21V9C42 8.20435 41.6839 7.44129 41.1213 6.87868C40.5587 6.31607 39.7956 6 39 6H15C14.2044 6 13.4413 6.31607 12.8787 6.87868C12.3161 7.44129 12 8.20435 12 9V21C12 21.7956 12.3161 22.5587 12.8787 23.1213C13.4413 23.6839 14.2044 24 15 24ZM14 9C14 8.73478 14.1054 8.48043 14.2929 8.29289C14.4804 8.10536 14.7348 8 15 8H39C39.2652 8 39.5196 8.10536 39.7071 8.29289C39.8946 8.48043 40 8.73478 40 9V21C40 21.2652 39.8946 21.5196 39.7071 21.7071C39.5196 21.8946 39.2652 22 39 22H15C14.7348 22 14.4804 21.8946 14.2929 21.7071C14.1054 21.5196 14 21.2652 14 21V9Z" fill="currentColor"/>
<path d="M18 10H16V12H18V10Z" fill="currentColor"/>
<path d="M38 10H20V12H38V10Z" fill="currentColor"/>
<path d="M18 14H16V16H18V14Z" fill="currentColor"/>
<path d="M38 14H20V16H38V14Z" fill="currentColor"/>
<path d="M18 18H16V20H18V18Z" fill="currentColor"/>
<path d="M38 18H20V20H38V18Z" fill="currentColor"/>
</svg>
