<?xml version="1.0" encoding="iso-8859-1"?>
<!-- Generator: Adobe Illustrator 16.0.0, SVG Export Plug-In . SVG Version: 6.00 Build 0)  -->
<!DOCTYPE svg PUBLIC "-//W3C//DTD SVG 1.1//EN" "http://www.w3.org/Graphics/SVG/1.1/DTD/svg11.dtd">
<svg version="1.1" id="Capa_1" xmlns="http://www.w3.org/2000/svg" xmlns:xlink="http://www.w3.org/1999/xlink" x="0px" y="0px"
	 width="46.564px" height="46.565px" viewBox="0 0 46.564 46.565" style="enable-background:new 0 0 46.564 46.565;"
	 xml:space="preserve">
<g>
	<g>
		<path d="M38.955,0.072c-0.805-0.255-1.663,0.188-1.918,0.992l-6.68,20.993l-5.051-1.607c-0.522-0.165-1.091-0.101-1.562,0.179
			c-0.472,0.28-0.8,0.748-0.905,1.286c-0.3,1.546-0.451,3.207-0.443,4.854c2.938,0.311,5.575,1.923,7.204,4.345
			c2.155,0.165,4.041,1.32,5.209,3.013c1.883-1.942,3.563-4.44,4.68-6.914c0.225-0.499,0.226-1.069,0.003-1.57
			c-0.224-0.5-0.649-0.884-1.171-1.05l-5.051-1.606l6.678-20.993C40.203,1.187,39.76,0.328,38.955,0.072z"/>
		<path d="M33.008,38.559c0.057-0.257,0.086-0.521,0.086-0.794c0-2.064-1.673-3.737-3.736-3.737c-0.539,0-1.053,0.114-1.517,0.32
			c-0.952-2.669-3.483-4.582-6.479-4.582c-2.309,0-4.341,1.137-5.594,2.879c-0.52-0.193-1.082-0.3-1.669-0.3
			c-2.638,0-4.776,2.139-4.776,4.776c0,0.441,0.069,0.869,0.182,1.274c-1.631,0.493-2.96,1.985-2.96,3.755v0.102
			c0,2.169,2.128,4.312,4.3,4.312h20.793c2.17,0,3.537-2.144,3.537-4.312v-0.102C35.174,40.542,34.385,39.164,33.008,38.559z"/>
	</g>
</g>
</svg>
