<?xml version="1.0" encoding="iso-8859-1"?>
<!-- Generator: Adobe Illustrator 19.0.0, SVG Export Plug-In . SVG Version: 6.00 Build 0)  -->
<svg version="1.1" id="Layer_1" xmlns="http://www.w3.org/2000/svg" xmlns:xlink="http://www.w3.org/1999/xlink" x="0px" y="0px"
	 viewBox="0 0 512 512" style="enable-background:new 0 0 512 512;" xml:space="preserve">
<rect x="168.445" y="412.267" style="fill:#AA8B65;" width="173.46" height="99.733"/>
<path style="fill:#3EAC92;" d="M312.127,292.149c10.88-28.608,18.982-61.79,18.982-97.175C331.11,87.293,256.073,0,256.073,0
	s-75.037,87.293-75.037,194.974c0,35.55,8.179,68.878,19.136,97.576v116.399l55.39,26.313l60.026-30.32L312.127,292.149z"/>
<path style="fill:#7CD8A4;" d="M180.329,269.671c68.004,68.004,75.745,170.521,75.745,170.521s-102.517-7.739-170.521-75.745
	S9.807,193.926,9.807,193.926S112.325,201.667,180.329,269.671z"/>
<g>
	<path style="fill:#266659;" d="M256.073,447.729c-1.928,0-3.858-0.736-5.329-2.207L36.395,231.173
		c-2.943-2.944-2.943-7.715,0-10.659c2.943-2.942,7.715-2.942,10.658,0l214.349,214.348c2.943,2.944,2.943,7.715,0,10.659
		C259.931,446.992,258.002,447.729,256.073,447.729z"/>
	<path style="fill:#266659;" d="M149.788,341.443h-42.325c-4.162,0-7.537-3.373-7.537-7.537c0-4.163,3.374-7.536,7.537-7.536h34.789
		v-34.787c0-4.163,3.374-7.536,7.536-7.536s7.536,3.373,7.536,7.536v42.324C157.325,338.07,153.95,341.443,149.788,341.443z"/>
	<path style="fill:#266659;" d="M188.242,379.899h-42.324c-4.162,0-7.537-3.373-7.537-7.536s3.374-7.536,7.537-7.536h34.787v-34.789
		c0-4.163,3.374-7.536,7.537-7.536s7.536,3.373,7.536,7.536v42.325C195.779,376.526,192.404,379.899,188.242,379.899z"/>
	<path style="fill:#266659;" d="M111.327,302.983H69.002c-4.162,0-7.537-3.373-7.537-7.536s3.374-7.536,7.537-7.536h34.789v-34.788
		c0-4.163,3.374-7.536,7.537-7.536c4.162,0,7.536,3.373,7.536,7.536v42.324C118.863,299.609,115.489,302.983,111.327,302.983z"/>
</g>
<path style="fill:#7CD8A4;" d="M426.448,364.448c-68.004,68.004-170.521,75.745-170.521,75.745s7.739-102.517,75.745-170.521
	s170.521-75.745,170.521-75.745S494.453,296.444,426.448,364.448z"/>
<g>
	<path style="fill:#266659;" d="M255.926,447.729c-1.928,0-3.858-0.736-5.329-2.207c-2.943-2.944-2.943-7.715,0-10.659
		l209.867-209.866c2.943-2.942,7.715-2.942,10.658,0c2.943,2.944,2.943,7.715,0,10.659L261.255,445.522
		C259.784,446.992,257.855,447.729,255.926,447.729z"/>
	<path style="fill:#266659;" d="M404.536,341.443h-42.325c-4.162,0-7.537-3.373-7.537-7.537v-42.324
		c0-4.163,3.374-7.536,7.537-7.536c4.162,0,7.536,3.373,7.536,7.536v34.787h34.788c4.162,0,7.537,3.373,7.537,7.536
		C412.072,338.07,408.698,341.443,404.536,341.443z"/>
	<path style="fill:#266659;" d="M366.081,379.899h-42.324c-4.162,0-7.536-3.373-7.536-7.536v-42.325
		c0-4.163,3.374-7.536,7.536-7.536c4.162,0,7.536,3.373,7.536,7.536v34.789h34.788c4.162,0,7.536,3.373,7.536,7.536
		S370.243,379.899,366.081,379.899z"/>
	<path style="fill:#266659;" d="M442.997,302.983h-42.325c-4.162,0-7.536-3.373-7.536-7.536v-42.324
		c0-4.163,3.374-7.536,7.536-7.536c4.162,0,7.536,3.373,7.536,7.536v34.788h34.789c4.162,0,7.536,3.373,7.536,7.536
		S447.159,302.983,442.997,302.983z"/>
</g>
<path style="fill:#7CD8A4;" d="M392.308,236.992c-28.687,41.604-80.933,55.34-80.933,55.34s-5.736-53.717,22.95-95.321
	s80.933-55.34,80.933-55.34S420.994,195.388,392.308,236.992z"/>
<g>
	<path style="fill:#266659;" d="M328.606,275.133c-1.475,0-2.965-0.432-4.271-1.332c-3.427-2.363-4.29-7.056-1.926-10.484
		l68.805-100.19c2.362-3.425,7.055-4.29,10.483-1.926s4.29,7.056,1.926,10.484l-68.805,100.19
		C333.355,273.993,331.001,275.133,328.606,275.133z"/>
	<path style="fill:#266659;" d="M356.2,234.847c-3.566,0-6.736-2.541-7.404-6.176l-4.019-21.874
		c-0.753-4.094,1.956-8.022,6.05-8.774c4.094-0.746,8.022,1.956,8.774,6.05l2.658,14.461l14.462-2.658
		c4.096-0.746,8.022,1.956,8.774,6.05c0.753,4.094-1.956,8.022-6.05,8.774l-21.874,4.019
		C357.11,234.806,356.652,234.847,356.2,234.847z"/>
</g>
<path style="fill:#7CD8A4;" d="M120.692,237.621c28.687,41.604,80.933,55.34,80.933,55.34s5.736-53.717-22.95-95.321
	S97.742,142.3,97.742,142.3S92.005,196.017,120.692,237.621z"/>
<g>
	<path style="fill:#266659;" d="M183.548,277.13c-2.395,0-4.749-1.139-6.211-3.259l-64.378-96.145
		c-2.363-3.427-1.5-8.12,1.926-10.484c3.428-2.361,8.12-1.5,10.483,1.926l64.378,96.145c2.363,3.427,1.5,8.12-1.926,10.484
		C186.513,276.697,185.023,277.13,183.548,277.13z"/>
	<path style="fill:#266659;" d="M156.799,235.476c-0.452,0-0.91-0.04-1.371-0.125l-21.874-4.019
		c-4.094-0.753-6.803-4.681-6.05-8.775c0.753-4.093,4.683-6.801,8.774-6.05l14.462,2.658l2.658-14.461
		c0.753-4.094,4.688-6.799,8.774-6.05c4.094,0.753,6.803,4.681,6.05,8.775l-4.019,21.874
		C163.535,232.933,160.365,235.476,156.799,235.476z"/>
	<path style="fill:#266659;" d="M256.073,434.862c-4.162,0-7.536-3.394-7.536-7.583V34.954c0-4.188,3.374-7.583,7.536-7.583
		c4.162,0,7.537,3.394,7.537,7.583V427.28C263.609,431.468,260.235,434.862,256.073,434.862z"/>
	<path style="fill:#266659;" d="M256.073,229.188c-1.999,0-3.916-0.794-5.329-2.207l-33.509-33.51
		c-2.943-2.944-2.943-7.715,0-10.659c2.943-2.942,7.715-2.942,10.658,0l28.18,28.182l28.18-28.182c2.943-2.942,7.715-2.942,10.658,0
		c2.943,2.944,2.943,7.715,0,10.659l-33.509,33.51C259.989,228.394,258.072,229.188,256.073,229.188z"/>
	<path style="fill:#266659;" d="M256.073,290.08c-1.999,0-3.916-0.794-5.329-2.207l-33.509-33.51c-2.943-2.944-2.943-7.715,0-10.659
		c2.943-2.942,7.715-2.942,10.658,0l28.18,28.182l28.18-28.182c2.943-2.942,7.715-2.942,10.658,0c2.943,2.944,2.943,7.715,0,10.659
		l-33.509,33.51C259.989,289.286,258.072,290.08,256.073,290.08z"/>
	<path style="fill:#266659;" d="M256.073,168.287c-1.928,0-3.858-0.736-5.329-2.207l-33.509-33.509
		c-2.943-2.944-2.943-7.715,0-10.659c2.943-2.942,7.715-2.942,10.658,0l28.18,28.18l28.18-28.18c2.943-2.942,7.715-2.942,10.658,0
		c2.943,2.944,2.943,7.715,0,10.659l-33.509,33.509C259.931,167.552,258.002,168.287,256.073,168.287z"/>
</g>
<g>
	<polyline style="fill:#836948;" points="341.865,482.117 168.403,455.818 168.477,440.586 341.905,467.193 	"/>
	<polygon style="fill:#836948;" points="341.865,511.962 341.865,500.355 168.403,474.448 168.403,489.676 317.547,511.962 	"/>
</g>
<g style="opacity:0.21;">
	<path style="fill:#266659;" d="M400.939,222.166c18.799-38.489,14.319-80.495,14.319-80.495s-37.863,9.96-66.823,38.59
		c-12.648,89.188-48.237,204.494-145.938,249.387c17.214,4.909,31.833,7.618,41.428,9.055l5.901,5.901
		c0.232,0.32,0.483,0.63,0.772,0.918c1.471,1.471,3.4,2.207,5.329,2.207c0.024,0,0.049-0.003,0.073-0.003
		c0.024,0,0.049,0.003,0.073,0.003c1.928,0,3.858-0.736,5.329-2.207c0.288-0.288,0.54-0.599,0.772-0.918l5.901-5.901
		c29.127-4.363,104.552-20.434,158.373-74.255c68.004-68.004,75.745-170.522,75.745-170.522S453.48,197.607,400.939,222.166z"/>
</g>
<g>
</g>
<g>
</g>
<g>
</g>
<g>
</g>
<g>
</g>
<g>
</g>
<g>
</g>
<g>
</g>
<g>
</g>
<g>
</g>
<g>
</g>
<g>
</g>
<g>
</g>
<g>
</g>
<g>
</g>
</svg>
